<svg xmlns="http://www.w3.org/2000/svg" xmlns:xlink="http://www.w3.org/1999/xlink" width="2000" zoomAndPan="magnify" viewBox="0 0 1500 187.499995" height="250" preserveAspectRatio="xMidYMid meet" version="1.0"><defs><g/><clipPath id="c33e07c083"><path d="M 0.0195312 33 L 41 33 L 41 146 L 0.0195312 146 Z M 0.0195312 33 " clip-rule="nonzero"/></clipPath><clipPath id="d4371082b6"><rect x="0" width="1397" y="0" height="187"/></clipPath></defs><g transform="matrix(1, 0, 0, 1, 52, 0)"><g clip-path="url(#d4371082b6)"><g clip-path="url(#c33e07c083)"><g fill="#1c1b1b" fill-opacity="1"><g transform="translate(0.119687, 145.646823)"><g><path d="M 15.15625 -111.796875 C 16.457031 -111.796875 17.625 -111.113281 18.65625 -109.75 C 19.6875 -108.394531 20.25 -106.644531 20.34375 -104.5 L 20.34375 -28.328125 C 20.34375 -26.835938 20.34375 -24.921875 20.34375 -22.578125 C 20.34375 -20.242188 20.082031 -17.765625 19.5625 -15.140625 C 19.050781 -12.523438 18.117188 -10.070312 16.765625 -7.78125 C 15.410156 -5.488281 13.375 -3.617188 10.65625 -2.171875 C 7.945312 -0.722656 4.394531 0 0 0 C 7.945312 0 14.257812 -0.722656 18.9375 -2.171875 C 23.613281 -3.617188 27.070312 -5.648438 29.3125 -8.265625 C 31.5625 -10.890625 33.035156 -13.976562 33.734375 -17.53125 C 34.429688 -21.082031 34.78125 -24.914062 34.78125 -29.03125 L 34.78125 -103.796875 C 34.78125 -106.222656 35.296875 -108.160156 36.328125 -109.609375 C 37.359375 -111.066406 38.570312 -111.796875 39.96875 -111.796875 Z M 15.15625 -111.796875 "/></g></g></g></g><g fill="#1c1b1b" fill-opacity="1"><g transform="translate(47.2475, 145.646823)"><g><path d="M 77.28125 -111.796875 L 0 -111.796875 C 1.3125 -111.796875 2.476562 -111.113281 3.5 -109.75 C 4.53125 -108.394531 5.09375 -106.644531 5.1875 -104.5 L 5.1875 -7.296875 C 5.09375 -5.140625 4.53125 -3.382812 3.5 -2.03125 C 2.476562 -0.675781 1.3125 0 0 0 L 77.421875 0 L 77.421875 -15.5625 C 77.421875 -15.5625 77.234375 -14.953125 76.859375 -13.734375 C 76.484375 -12.523438 75.523438 -11.078125 73.984375 -9.390625 C 72.441406 -7.710938 69.988281 -6.125 66.625 -4.625 C 63.257812 -3.132812 58.535156 -2.0625 52.453125 -1.40625 L 21.875 -1.40625 C 21.226562 -2.0625 20.691406 -2.945312 20.265625 -4.0625 C 19.847656 -5.1875 19.640625 -6.453125 19.640625 -7.859375 L 19.640625 -55.96875 L 35.484375 -55.96875 C 39.316406 -55.3125 42.117188 -54.398438 43.890625 -53.234375 C 45.671875 -52.066406 46.816406 -51.015625 47.328125 -50.078125 C 47.847656 -49.140625 48.109375 -48.671875 48.109375 -48.671875 L 48.109375 -64.515625 C 48.109375 -64.515625 47.847656 -64.046875 47.328125 -63.109375 C 46.816406 -62.179688 45.671875 -61.128906 43.890625 -59.953125 C 42.117188 -58.785156 39.316406 -57.878906 35.484375 -57.234375 L 19.640625 -57.234375 L 19.640625 -103.796875 C 19.640625 -106.691406 20.429688 -108.9375 22.015625 -110.53125 L 52.3125 -110.53125 C 58.394531 -109.875 63.140625 -108.796875 66.546875 -107.296875 C 69.960938 -105.804688 72.441406 -104.21875 73.984375 -102.53125 C 75.523438 -100.851562 76.484375 -99.40625 76.859375 -98.1875 C 77.234375 -96.96875 77.421875 -96.359375 77.421875 -96.359375 L 77.421875 -111.796875 Z M 77.28125 -111.796875 "/></g></g></g><g fill="#1c1b1b" fill-opacity="1"><g transform="translate(131.82509, 145.646823)"><g><path d="M 0 -111.796875 L 0 -96.359375 C 0 -96.359375 0.207031 -97.035156 0.625 -98.390625 C 1.050781 -99.753906 2.054688 -101.367188 3.640625 -103.234375 C 5.234375 -105.109375 7.734375 -106.769531 11.140625 -108.21875 C 14.554688 -109.664062 19.210938 -110.4375 25.109375 -110.53125 L 31 -110.53125 C 32.40625 -109.21875 33.15625 -107.207031 33.25 -104.5 L 33.25 -7.296875 C 33.15625 -5.140625 32.59375 -3.382812 31.5625 -2.03125 C 30.53125 -0.675781 29.359375 0 28.046875 0 L 53.015625 0 C 51.523438 0 50.265625 -0.722656 49.234375 -2.171875 C 48.203125 -3.617188 47.6875 -5.515625 47.6875 -7.859375 L 47.6875 -103.796875 C 47.6875 -106.691406 48.484375 -108.9375 50.078125 -110.53125 L 55.96875 -110.53125 C 61.851562 -110.4375 66.503906 -109.664062 69.921875 -108.21875 C 73.335938 -106.769531 75.835938 -105.109375 77.421875 -103.234375 C 79.015625 -101.367188 80.019531 -99.753906 80.4375 -98.390625 C 80.863281 -97.035156 81.078125 -96.359375 81.078125 -96.359375 L 81.078125 -111.796875 Z M 0 -111.796875 "/></g></g></g><g fill="#1c1b1b" fill-opacity="1"><g transform="translate(220.049474, 145.646823)"><g><path d="M 77.28125 -111.796875 L 0 -111.796875 C 1.3125 -111.796875 2.476562 -111.113281 3.5 -109.75 C 4.53125 -108.394531 5.09375 -106.644531 5.1875 -104.5 L 5.1875 -7.296875 C 5.09375 -5.140625 4.53125 -3.382812 3.5 -2.03125 C 2.476562 -0.675781 1.3125 0 0 0 L 77.421875 0 L 77.421875 -15.5625 C 77.421875 -15.5625 77.234375 -14.953125 76.859375 -13.734375 C 76.484375 -12.523438 75.523438 -11.078125 73.984375 -9.390625 C 72.441406 -7.710938 69.988281 -6.125 66.625 -4.625 C 63.257812 -3.132812 58.535156 -2.0625 52.453125 -1.40625 L 21.875 -1.40625 C 21.226562 -2.0625 20.691406 -2.945312 20.265625 -4.0625 C 19.847656 -5.1875 19.640625 -6.453125 19.640625 -7.859375 L 19.640625 -55.96875 L 35.484375 -55.96875 C 39.316406 -55.3125 42.117188 -54.398438 43.890625 -53.234375 C 45.671875 -52.066406 46.816406 -51.015625 47.328125 -50.078125 C 47.847656 -49.140625 48.109375 -48.671875 48.109375 -48.671875 L 48.109375 -64.515625 C 48.109375 -64.515625 47.847656 -64.046875 47.328125 -63.109375 C 46.816406 -62.179688 45.671875 -61.128906 43.890625 -59.953125 C 42.117188 -58.785156 39.316406 -57.878906 35.484375 -57.234375 L 19.640625 -57.234375 L 19.640625 -103.796875 C 19.640625 -106.691406 20.429688 -108.9375 22.015625 -110.53125 L 52.3125 -110.53125 C 58.394531 -109.875 63.140625 -108.796875 66.546875 -107.296875 C 69.960938 -105.804688 72.441406 -104.21875 73.984375 -102.53125 C 75.523438 -100.851562 76.484375 -99.40625 76.859375 -98.1875 C 77.234375 -96.96875 77.421875 -96.359375 77.421875 -96.359375 L 77.421875 -111.796875 Z M 49.9375 -130.734375 L 42.359375 -130.734375 C 42.640625 -130.734375 42.847656 -130.566406 42.984375 -130.234375 C 43.128906 -129.910156 43.109375 -129.609375 42.921875 -129.328125 L 38.15625 -119.640625 C 37.875 -118.898438 37.125 -118.4375 35.90625 -118.25 L 44.328125 -118.25 C 43.578125 -118.34375 43.34375 -118.804688 43.625 -119.640625 L 48.25 -129.1875 C 48.71875 -130.125 49.28125 -130.640625 49.9375 -130.734375 Z M 49.9375 -130.734375 "/></g></g></g><g fill="#1c1b1b" fill-opacity="1"><g transform="translate(304.627075, 145.646823)"><g/></g></g><g fill="#1c1b1b" fill-opacity="1"><g transform="translate(360.731593, 145.646823)"><g><path d="M 30.15625 0 C 39.507812 0 47.390625 -1.257812 53.796875 -3.78125 C 60.203125 -6.3125 65.390625 -9.679688 69.359375 -13.890625 C 73.335938 -18.097656 76.378906 -22.703125 78.484375 -27.703125 C 80.585938 -32.703125 81.988281 -37.703125 82.6875 -42.703125 C 83.382812 -47.710938 83.734375 -52.226562 83.734375 -56.25 C 83.734375 -59.894531 83.335938 -64.125 82.546875 -68.9375 C 81.753906 -73.757812 80.28125 -78.671875 78.125 -83.671875 C 75.976562 -88.671875 72.914062 -93.296875 68.9375 -97.546875 C 64.96875 -101.804688 59.828125 -105.242188 53.515625 -107.859375 C 47.203125 -110.484375 39.460938 -111.796875 30.296875 -111.796875 L 0 -111.796875 C 1.3125 -111.796875 2.476562 -111.113281 3.5 -109.75 C 4.53125 -108.394531 5.09375 -106.644531 5.1875 -104.5 L 5.1875 -7.296875 C 5.09375 -5.140625 4.53125 -3.382812 3.5 -2.03125 C 2.476562 -0.675781 1.3125 0 0 0 Z M 21.875 -110.53125 L 23.140625 -110.53125 C 31.367188 -110.4375 38.195312 -109.195312 43.625 -106.8125 C 49.050781 -104.425781 53.421875 -101.316406 56.734375 -97.484375 C 60.054688 -93.648438 62.535156 -89.535156 64.171875 -85.140625 C 65.804688 -80.742188 66.90625 -76.507812 67.46875 -72.4375 C 68.03125 -68.375 68.3125 -64.867188 68.3125 -61.921875 C 68.3125 -58.984375 68.3125 -57.09375 68.3125 -56.25 C 68.3125 -55.5 68.265625 -53.671875 68.171875 -50.765625 C 68.078125 -47.867188 67.675781 -44.363281 66.96875 -40.25 C 66.269531 -36.132812 65.007812 -31.878906 63.1875 -27.484375 C 61.363281 -23.097656 58.742188 -18.941406 55.328125 -15.015625 C 51.921875 -11.085938 47.503906 -7.882812 42.078125 -5.40625 C 36.648438 -2.925781 29.914062 -1.59375 21.875 -1.40625 C 21.226562 -2.0625 20.691406 -2.945312 20.265625 -4.0625 C 19.847656 -5.1875 19.640625 -6.5 19.640625 -8 L 19.640625 -103.9375 C 19.640625 -105.34375 19.847656 -106.628906 20.265625 -107.796875 C 20.691406 -108.960938 21.226562 -109.875 21.875 -110.53125 Z M 21.875 -110.53125 "/></g></g></g><g fill="#1c1b1b" fill-opacity="1"><g transform="translate(441.802285, 145.646823)"><g><path d="M 34.78125 -111.796875 C 34.96875 -111.796875 35.175781 -111.769531 35.40625 -111.71875 C 35.644531 -111.675781 35.90625 -111.609375 36.1875 -111.515625 C 37.21875 -111.140625 37.875 -110.269531 38.15625 -108.90625 C 38.4375 -107.550781 38.296875 -105.894531 37.734375 -103.9375 L 7.71875 -8 C 6.96875 -5.65625 5.84375 -3.734375 4.34375 -2.234375 C 2.851562 -0.742188 1.40625 0 0 0 L 13.75 0 C 12.34375 0 11.359375 -0.675781 10.796875 -2.03125 C 10.234375 -3.382812 10.234375 -5.140625 10.796875 -7.296875 L 25.25 -53.015625 C 25.625 -54.515625 26.742188 -55.265625 28.609375 -55.265625 L 54.84375 -55.265625 C 55.875 -55.265625 56.664062 -55.050781 57.21875 -54.625 C 57.78125 -54.207031 58.15625 -53.671875 58.34375 -53.015625 L 72.65625 -7.296875 C 73.3125 -5.140625 73.332031 -3.382812 72.71875 -2.03125 C 72.113281 -0.675781 71.113281 0 69.71875 0 L 94.671875 0 C 93.273438 0 91.828125 -0.742188 90.328125 -2.234375 C 88.835938 -3.734375 87.71875 -5.65625 86.96875 -8 L 56.953125 -103.9375 C 56.296875 -106.269531 56.222656 -108.160156 56.734375 -109.609375 C 57.253906 -111.066406 58.257812 -111.796875 59.75 -111.796875 Z M 56.53125 -58.625 C 56.71875 -58.164062 56.765625 -57.722656 56.671875 -57.296875 C 56.578125 -56.878906 56.0625 -56.625 55.125 -56.53125 L 28.328125 -56.53125 C 27.492188 -56.625 27.03125 -56.878906 26.9375 -57.296875 C 26.84375 -57.722656 26.84375 -58.164062 26.9375 -58.625 L 41.234375 -104.5 C 41.421875 -105.0625 41.609375 -105.484375 41.796875 -105.765625 C 41.890625 -105.578125 41.957031 -105.363281 42 -105.125 C 42.050781 -104.894531 42.125 -104.6875 42.21875 -104.5 Z M 56.53125 -58.625 "/></g></g></g><g fill="#1c1b1b" fill-opacity="1"><g transform="translate(543.632007, 145.646823)"><g><path d="M 25.109375 -111.796875 L 0.28125 -111.796875 C 0.375 -111.796875 0.421875 -111.796875 0.421875 -111.796875 C 0.421875 -111.796875 0.46875 -111.796875 0.5625 -111.796875 L 0.140625 -111.796875 C 1.546875 -111.796875 2.757812 -111.066406 3.78125 -109.609375 C 4.8125 -108.160156 5.328125 -106.269531 5.328125 -103.9375 L 5.1875 -8 C 5.1875 -5.65625 4.695312 -3.734375 3.71875 -2.234375 C 2.738281 -0.742188 1.5 0 0 0 L 13.75 0 C 12.4375 0 11.289062 -0.675781 10.3125 -2.03125 C 9.332031 -3.382812 8.75 -5.140625 8.5625 -7.296875 L 8.703125 -104.5 C 8.703125 -104.59375 8.703125 -104.660156 8.703125 -104.703125 C 8.703125 -104.753906 8.703125 -104.828125 8.703125 -104.921875 C 8.703125 -104.828125 8.796875 -104.6875 8.984375 -104.5 L 55.265625 -7.4375 C 56.296875 -5.1875 56.597656 -3.40625 56.171875 -2.09375 C 55.753906 -0.789062 54.890625 -0.140625 53.578125 -0.140625 L 78.40625 0 C 76.257812 0 74.90625 -0.742188 74.34375 -2.234375 C 73.78125 -3.734375 73.40625 -5.421875 73.21875 -7.296875 L 73.359375 -104.5 C 73.453125 -106.644531 73.988281 -108.394531 74.96875 -109.75 C 75.945312 -111.113281 77.140625 -111.796875 78.546875 -111.796875 L 64.796875 -111.796875 C 66.203125 -111.796875 67.421875 -111.066406 68.453125 -109.609375 C 69.484375 -108.160156 70 -106.269531 70 -103.9375 L 69.859375 -8 C 69.859375 -7.90625 69.859375 -7.785156 69.859375 -7.640625 C 69.859375 -7.503906 69.859375 -7.34375 69.859375 -7.15625 C 69.765625 -7.34375 69.691406 -7.503906 69.640625 -7.640625 C 69.597656 -7.785156 69.53125 -7.90625 69.4375 -8 L 23.703125 -103.9375 C 22.578125 -106.363281 22.175781 -108.28125 22.5 -109.6875 C 22.832031 -111.09375 23.703125 -111.796875 25.109375 -111.796875 Z M 25.109375 -111.796875 "/></g></g></g><g fill="#1c1b1b" fill-opacity="1"><g transform="translate(629.191426, 145.646823)"><g><path d="M 75.328125 -98.609375 C 75.328125 -98.609375 75.328125 -98.5625 75.328125 -98.46875 C 75.890625 -97.25 75.582031 -96.242188 74.40625 -95.453125 C 73.238281 -94.660156 72.1875 -94.21875 71.25 -94.125 L 91.734375 -95.9375 C 90.609375 -95.84375 89.300781 -96.453125 87.8125 -97.765625 C 82.476562 -102.722656 76.375 -106.460938 69.5 -108.984375 C 62.625 -111.515625 55.398438 -112.40625 47.828125 -111.65625 C 40.535156 -111 33.828125 -108.914062 27.703125 -105.40625 C 21.578125 -101.90625 16.335938 -97.394531 11.984375 -91.875 C 7.640625 -86.351562 4.414062 -80.085938 2.3125 -73.078125 C 0.207031 -66.066406 -0.46875 -58.726562 0.28125 -51.0625 C 1.03125 -43.394531 3.0625 -36.3125 6.375 -29.8125 C 9.695312 -23.3125 14.023438 -17.722656 19.359375 -13.046875 C 24.691406 -8.367188 30.675781 -4.90625 37.3125 -2.65625 C 43.945312 -0.414062 50.910156 0.375 58.203125 -0.28125 C 65.128906 -0.9375 71.421875 -2.921875 77.078125 -6.234375 C 82.734375 -9.554688 86.960938 -13.507812 89.765625 -18.09375 L 87.671875 -18.09375 C 85.703125 -14.914062 83.035156 -12.15625 79.671875 -9.8125 C 76.304688 -7.476562 72.707031 -5.609375 68.875 -4.203125 C 65.039062 -2.804688 61.4375 -1.921875 58.0625 -1.546875 C 52.832031 -1.078125 47.757812 -2.035156 42.84375 -4.421875 C 37.9375 -6.804688 33.492188 -10.3125 29.515625 -14.9375 C 25.546875 -19.5625 22.273438 -25.078125 19.703125 -31.484375 C 17.128906 -37.890625 15.472656 -44.832031 14.734375 -52.3125 C 14.078125 -59.800781 14.425781 -66.957031 15.78125 -73.78125 C 17.132812 -80.601562 19.332031 -86.679688 22.375 -92.015625 C 25.414062 -97.347656 29.109375 -101.625 33.453125 -104.84375 C 37.796875 -108.070312 42.632812 -109.875 47.96875 -110.25 C 52.269531 -110.53125 56.289062 -110.15625 60.03125 -109.125 C 63.769531 -108.09375 66.992188 -106.664062 69.703125 -104.84375 C 72.421875 -103.019531 74.296875 -100.941406 75.328125 -98.609375 Z M 75.328125 -98.609375 "/></g></g></g><g fill="#1c1b1b" fill-opacity="1"><g transform="translate(725.83147, 145.646823)"><g><path d="M 77.28125 -111.796875 L 0 -111.796875 C 1.3125 -111.796875 2.476562 -111.113281 3.5 -109.75 C 4.53125 -108.394531 5.09375 -106.644531 5.1875 -104.5 L 5.1875 -7.296875 C 5.09375 -5.140625 4.53125 -3.382812 3.5 -2.03125 C 2.476562 -0.675781 1.3125 0 0 0 L 77.421875 0 L 77.421875 -15.5625 C 77.421875 -15.5625 77.234375 -14.953125 76.859375 -13.734375 C 76.484375 -12.523438 75.523438 -11.078125 73.984375 -9.390625 C 72.441406 -7.710938 69.988281 -6.125 66.625 -4.625 C 63.257812 -3.132812 58.535156 -2.0625 52.453125 -1.40625 L 21.875 -1.40625 C 21.226562 -2.0625 20.691406 -2.945312 20.265625 -4.0625 C 19.847656 -5.1875 19.640625 -6.453125 19.640625 -7.859375 L 19.640625 -55.96875 L 35.484375 -55.96875 C 39.316406 -55.3125 42.117188 -54.398438 43.890625 -53.234375 C 45.671875 -52.066406 46.816406 -51.015625 47.328125 -50.078125 C 47.847656 -49.140625 48.109375 -48.671875 48.109375 -48.671875 L 48.109375 -64.515625 C 48.109375 -64.515625 47.847656 -64.046875 47.328125 -63.109375 C 46.816406 -62.179688 45.671875 -61.128906 43.890625 -59.953125 C 42.117188 -58.785156 39.316406 -57.878906 35.484375 -57.234375 L 19.640625 -57.234375 L 19.640625 -103.796875 C 19.640625 -106.691406 20.429688 -108.9375 22.015625 -110.53125 L 52.3125 -110.53125 C 58.394531 -109.875 63.140625 -108.796875 66.546875 -107.296875 C 69.960938 -105.804688 72.441406 -104.21875 73.984375 -102.53125 C 75.523438 -100.851562 76.484375 -99.40625 76.859375 -98.1875 C 77.234375 -96.96875 77.421875 -96.359375 77.421875 -96.359375 L 77.421875 -111.796875 Z M 77.28125 -111.796875 "/></g></g></g><g fill="#1c1b1b" fill-opacity="1"><g transform="translate(810.409071, 145.646823)"><g/></g></g><g fill="#1c1b1b" fill-opacity="1"><g transform="translate(866.513629, 145.646823)"><g><path d="M 75.328125 -98.609375 C 75.328125 -98.609375 75.328125 -98.5625 75.328125 -98.46875 C 75.890625 -97.25 75.582031 -96.242188 74.40625 -95.453125 C 73.238281 -94.660156 72.1875 -94.21875 71.25 -94.125 L 91.734375 -95.9375 C 90.609375 -95.84375 89.300781 -96.453125 87.8125 -97.765625 C 82.476562 -102.722656 76.375 -106.460938 69.5 -108.984375 C 62.625 -111.515625 55.398438 -112.40625 47.828125 -111.65625 C 40.535156 -111 33.828125 -108.914062 27.703125 -105.40625 C 21.578125 -101.90625 16.335938 -97.394531 11.984375 -91.875 C 7.640625 -86.351562 4.414062 -80.085938 2.3125 -73.078125 C 0.207031 -66.066406 -0.46875 -58.726562 0.28125 -51.0625 C 1.03125 -43.394531 3.0625 -36.3125 6.375 -29.8125 C 9.695312 -23.3125 14.023438 -17.722656 19.359375 -13.046875 C 24.691406 -8.367188 30.675781 -4.90625 37.3125 -2.65625 C 43.945312 -0.414062 50.910156 0.375 58.203125 -0.28125 C 65.128906 -0.9375 71.421875 -2.921875 77.078125 -6.234375 C 82.734375 -9.554688 86.960938 -13.507812 89.765625 -18.09375 L 87.671875 -18.09375 C 85.703125 -14.914062 83.035156 -12.15625 79.671875 -9.8125 C 76.304688 -7.476562 72.707031 -5.609375 68.875 -4.203125 C 65.039062 -2.804688 61.4375 -1.921875 58.0625 -1.546875 C 52.832031 -1.078125 47.757812 -2.035156 42.84375 -4.421875 C 37.9375 -6.804688 33.492188 -10.3125 29.515625 -14.9375 C 25.546875 -19.5625 22.273438 -25.078125 19.703125 -31.484375 C 17.128906 -37.890625 15.472656 -44.832031 14.734375 -52.3125 C 14.078125 -59.800781 14.425781 -66.957031 15.78125 -73.78125 C 17.132812 -80.601562 19.332031 -86.679688 22.375 -92.015625 C 25.414062 -97.347656 29.109375 -101.625 33.453125 -104.84375 C 37.796875 -108.070312 42.632812 -109.875 47.96875 -110.25 C 52.269531 -110.53125 56.289062 -110.15625 60.03125 -109.125 C 63.769531 -108.09375 66.992188 -106.664062 69.703125 -104.84375 C 72.421875 -103.019531 74.296875 -100.941406 75.328125 -98.609375 Z M 75.328125 -98.609375 "/></g></g></g><g fill="#1c1b1b" fill-opacity="1"><g transform="translate(963.153714, 145.646823)"><g><path d="M 77.28125 -111.796875 L 0 -111.796875 C 1.3125 -111.796875 2.476562 -111.113281 3.5 -109.75 C 4.53125 -108.394531 5.09375 -106.644531 5.1875 -104.5 L 5.1875 -7.296875 C 5.09375 -5.140625 4.53125 -3.382812 3.5 -2.03125 C 2.476562 -0.675781 1.3125 0 0 0 L 77.421875 0 L 77.421875 -15.5625 C 77.421875 -15.5625 77.234375 -14.953125 76.859375 -13.734375 C 76.484375 -12.523438 75.523438 -11.078125 73.984375 -9.390625 C 72.441406 -7.710938 69.988281 -6.125 66.625 -4.625 C 63.257812 -3.132812 58.535156 -2.0625 52.453125 -1.40625 L 21.875 -1.40625 C 21.226562 -2.0625 20.691406 -2.945312 20.265625 -4.0625 C 19.847656 -5.1875 19.640625 -6.453125 19.640625 -7.859375 L 19.640625 -55.96875 L 35.484375 -55.96875 C 39.316406 -55.3125 42.117188 -54.398438 43.890625 -53.234375 C 45.671875 -52.066406 46.816406 -51.015625 47.328125 -50.078125 C 47.847656 -49.140625 48.109375 -48.671875 48.109375 -48.671875 L 48.109375 -64.515625 C 48.109375 -64.515625 47.847656 -64.046875 47.328125 -63.109375 C 46.816406 -62.179688 45.671875 -61.128906 43.890625 -59.953125 C 42.117188 -58.785156 39.316406 -57.878906 35.484375 -57.234375 L 19.640625 -57.234375 L 19.640625 -103.796875 C 19.640625 -106.691406 20.429688 -108.9375 22.015625 -110.53125 L 52.3125 -110.53125 C 58.394531 -109.875 63.140625 -108.796875 66.546875 -107.296875 C 69.960938 -105.804688 72.441406 -104.21875 73.984375 -102.53125 C 75.523438 -100.851562 76.484375 -99.40625 76.859375 -98.1875 C 77.234375 -96.96875 77.421875 -96.359375 77.421875 -96.359375 L 77.421875 -111.796875 Z M 77.28125 -111.796875 "/></g></g></g><g fill="#1c1b1b" fill-opacity="1"><g transform="translate(1047.731314, 145.646823)"><g><path d="M 25.109375 -111.796875 L 0.28125 -111.796875 C 0.375 -111.796875 0.421875 -111.796875 0.421875 -111.796875 C 0.421875 -111.796875 0.46875 -111.796875 0.5625 -111.796875 L 0.140625 -111.796875 C 1.546875 -111.796875 2.757812 -111.066406 3.78125 -109.609375 C 4.8125 -108.160156 5.328125 -106.269531 5.328125 -103.9375 L 5.1875 -8 C 5.1875 -5.65625 4.695312 -3.734375 3.71875 -2.234375 C 2.738281 -0.742188 1.5 0 0 0 L 13.75 0 C 12.4375 0 11.289062 -0.675781 10.3125 -2.03125 C 9.332031 -3.382812 8.75 -5.140625 8.5625 -7.296875 L 8.703125 -104.5 C 8.703125 -104.59375 8.703125 -104.660156 8.703125 -104.703125 C 8.703125 -104.753906 8.703125 -104.828125 8.703125 -104.921875 C 8.703125 -104.828125 8.796875 -104.6875 8.984375 -104.5 L 55.265625 -7.4375 C 56.296875 -5.1875 56.597656 -3.40625 56.171875 -2.09375 C 55.753906 -0.789062 54.890625 -0.140625 53.578125 -0.140625 L 78.40625 0 C 76.257812 0 74.90625 -0.742188 74.34375 -2.234375 C 73.78125 -3.734375 73.40625 -5.421875 73.21875 -7.296875 L 73.359375 -104.5 C 73.453125 -106.644531 73.988281 -108.394531 74.96875 -109.75 C 75.945312 -111.113281 77.140625 -111.796875 78.546875 -111.796875 L 64.796875 -111.796875 C 66.203125 -111.796875 67.421875 -111.066406 68.453125 -109.609375 C 69.484375 -108.160156 70 -106.269531 70 -103.9375 L 69.859375 -8 C 69.859375 -7.90625 69.859375 -7.785156 69.859375 -7.640625 C 69.859375 -7.503906 69.859375 -7.34375 69.859375 -7.15625 C 69.765625 -7.34375 69.691406 -7.503906 69.640625 -7.640625 C 69.597656 -7.785156 69.53125 -7.90625 69.4375 -8 L 23.703125 -103.9375 C 22.578125 -106.363281 22.175781 -108.28125 22.5 -109.6875 C 22.832031 -111.09375 23.703125 -111.796875 25.109375 -111.796875 Z M 25.109375 -111.796875 "/></g></g></g><g fill="#1c1b1b" fill-opacity="1"><g transform="translate(1133.290733, 145.646823)"><g><path d="M 0 -111.796875 L 0 -96.359375 C 0 -96.359375 0.207031 -97.035156 0.625 -98.390625 C 1.050781 -99.753906 2.054688 -101.367188 3.640625 -103.234375 C 5.234375 -105.109375 7.734375 -106.769531 11.140625 -108.21875 C 14.554688 -109.664062 19.210938 -110.4375 25.109375 -110.53125 L 31 -110.53125 C 32.40625 -109.21875 33.15625 -107.207031 33.25 -104.5 L 33.25 -7.296875 C 33.15625 -5.140625 32.59375 -3.382812 31.5625 -2.03125 C 30.53125 -0.675781 29.359375 0 28.046875 0 L 53.015625 0 C 51.523438 0 50.265625 -0.722656 49.234375 -2.171875 C 48.203125 -3.617188 47.6875 -5.515625 47.6875 -7.859375 L 47.6875 -103.796875 C 47.6875 -106.691406 48.484375 -108.9375 50.078125 -110.53125 L 55.96875 -110.53125 C 61.851562 -110.4375 66.503906 -109.664062 69.921875 -108.21875 C 73.335938 -106.769531 75.835938 -105.109375 77.421875 -103.234375 C 79.015625 -101.367188 80.019531 -99.753906 80.4375 -98.390625 C 80.863281 -97.035156 81.078125 -96.359375 81.078125 -96.359375 L 81.078125 -111.796875 Z M 0 -111.796875 "/></g></g></g><g fill="#1c1b1b" fill-opacity="1"><g transform="translate(1221.515097, 145.646823)"><g><path d="M 77.28125 -111.796875 L 0 -111.796875 C 1.3125 -111.796875 2.476562 -111.113281 3.5 -109.75 C 4.53125 -108.394531 5.09375 -106.644531 5.1875 -104.5 L 5.1875 -7.296875 C 5.09375 -5.140625 4.53125 -3.382812 3.5 -2.03125 C 2.476562 -0.675781 1.3125 0 0 0 L 77.421875 0 L 77.421875 -15.5625 C 77.421875 -15.5625 77.234375 -14.953125 76.859375 -13.734375 C 76.484375 -12.523438 75.523438 -11.078125 73.984375 -9.390625 C 72.441406 -7.710938 69.988281 -6.125 66.625 -4.625 C 63.257812 -3.132812 58.535156 -2.0625 52.453125 -1.40625 L 21.875 -1.40625 C 21.226562 -2.0625 20.691406 -2.945312 20.265625 -4.0625 C 19.847656 -5.1875 19.640625 -6.453125 19.640625 -7.859375 L 19.640625 -55.96875 L 35.484375 -55.96875 C 39.316406 -55.3125 42.117188 -54.398438 43.890625 -53.234375 C 45.671875 -52.066406 46.816406 -51.015625 47.328125 -50.078125 C 47.847656 -49.140625 48.109375 -48.671875 48.109375 -48.671875 L 48.109375 -64.515625 C 48.109375 -64.515625 47.847656 -64.046875 47.328125 -63.109375 C 46.816406 -62.179688 45.671875 -61.128906 43.890625 -59.953125 C 42.117188 -58.785156 39.316406 -57.878906 35.484375 -57.234375 L 19.640625 -57.234375 L 19.640625 -103.796875 C 19.640625 -106.691406 20.429688 -108.9375 22.015625 -110.53125 L 52.3125 -110.53125 C 58.394531 -109.875 63.140625 -108.796875 66.546875 -107.296875 C 69.960938 -105.804688 72.441406 -104.21875 73.984375 -102.53125 C 75.523438 -100.851562 76.484375 -99.40625 76.859375 -98.1875 C 77.234375 -96.96875 77.421875 -96.359375 77.421875 -96.359375 L 77.421875 -111.796875 Z M 77.28125 -111.796875 "/></g></g></g><g fill="#1c1b1b" fill-opacity="1"><g transform="translate(1306.092697, 145.646823)"><g><path d="M 24.96875 0 C 23.5625 0 22.34375 -0.742188 21.3125 -2.234375 C 20.289062 -3.734375 19.78125 -5.65625 19.78125 -8 L 19.78125 -41.796875 L 41.515625 -41.796875 C 43.859375 -40.390625 45.773438 -38.238281 47.265625 -35.34375 L 60.59375 -7.4375 C 61.625 -5.1875 61.925781 -3.40625 61.5 -2.09375 C 61.082031 -0.789062 60.21875 -0.140625 58.90625 -0.140625 L 83.875 -0.140625 C 82.382812 -0.140625 80.796875 -0.863281 79.109375 -2.3125 C 77.421875 -3.757812 76.019531 -5.65625 74.90625 -8 L 62 -34.78125 C 60.78125 -36.84375 59.773438 -38.523438 58.984375 -39.828125 C 58.191406 -41.140625 56.578125 -42.03125 54.140625 -42.5 C 60.691406 -43.53125 66.066406 -45.585938 70.265625 -48.671875 C 74.472656 -51.753906 77.601562 -55.585938 79.65625 -60.171875 C 81.71875 -64.753906 82.75 -69.710938 82.75 -75.046875 C 82.84375 -81.773438 81.675781 -87.921875 79.25 -93.484375 C 76.820312 -99.046875 72.894531 -103.488281 67.46875 -106.8125 C 62.039062 -110.132812 54.75 -111.796875 45.59375 -111.796875 L 0 -111.796875 C 1.40625 -111.796875 2.597656 -111.113281 3.578125 -109.75 C 4.554688 -108.394531 5.09375 -106.644531 5.1875 -104.5 L 5.1875 -7.296875 C 5.09375 -5.140625 4.554688 -3.382812 3.578125 -2.03125 C 2.597656 -0.675781 1.40625 0 0 0 Z M 33.390625 -110.53125 C 39.554688 -110.53125 44.671875 -109.757812 48.734375 -108.21875 C 52.804688 -106.675781 56.082031 -104.640625 58.5625 -102.109375 C 61.039062 -99.585938 62.910156 -96.898438 64.171875 -94.046875 C 65.429688 -91.191406 66.269531 -88.410156 66.6875 -85.703125 C 67.113281 -82.992188 67.300781 -80.65625 67.25 -78.6875 C 67.207031 -76.726562 67.1875 -75.46875 67.1875 -74.90625 C 67.1875 -73.875 67.09375 -72.140625 66.90625 -69.703125 C 66.71875 -67.273438 66.132812 -64.566406 65.15625 -61.578125 C 64.175781 -58.585938 62.539062 -55.710938 60.25 -52.953125 C 57.957031 -50.191406 54.753906 -47.875 50.640625 -46 C 46.523438 -44.132812 41.238281 -43.15625 34.78125 -43.0625 L 19.78125 -43.0625 L 19.78125 -103.9375 C 19.78125 -106.832031 20.523438 -109.03125 22.015625 -110.53125 Z M 33.390625 -110.53125 "/></g></g></g></g></g></svg>