<svg xmlns="http://www.w3.org/2000/svg" xmlns:xlink="http://www.w3.org/1999/xlink" width="2000" zoomAndPan="magnify" viewBox="0 0 1500 1499.999933" height="2000" preserveAspectRatio="xMidYMid meet" version="1.0"><defs><g/><clipPath id="e24711b68b"><rect x="0" width="1068" y="0" height="1358"/></clipPath><clipPath id="c6521cd0fe"><rect x="0" width="286" y="0" height="104"/></clipPath></defs><g transform="matrix(1, 0, 0, 1, 164, 27)"><g clip-path="url(#e24711b68b)"><g fill="#1e1e1e" fill-opacity="1"><g transform="translate(138.003486, 919.847097)"><g><path d="M 474.5625 -86.5 C 475.15625 -90.0625 475.300781 -93.769531 475 -97.625 C 474.707031 -103.257812 471.816406 -105.851562 466.328125 -105.40625 C 461.441406 -104.8125 456.703125 -104.21875 452.109375 -103.625 C 369.828125 -90.875 288.132812 -74.863281 207.03125 -55.59375 C 181.53125 -49.664062 156.140625 -43.140625 130.859375 -36.015625 C 105.585938 -28.898438 80.722656 -20.601562 56.265625 -11.125 C 26.316406 0.289062 -1.109375 16.304688 -26.015625 36.921875 C -42.328125 49.960938 -55.816406 65.453125 -66.484375 83.390625 C -87.390625 119.859375 -88.0625 156.40625 -68.5 193.03125 C -58.414062 210.96875 -45.515625 226.753906 -29.796875 240.390625 C 5.785156 272.710938 46.703125 295.84375 92.953125 309.78125 C 116.078125 317.632812 139.578125 321.414062 163.453125 321.125 C 192.503906 321.414062 220.226562 316.375 246.625 306 C 271.382812 296.207031 293.695312 283.378906 313.5625 267.515625 C 333.425781 251.660156 351.363281 233.351562 367.375 212.59375 C 379.53125 196.582031 390.164062 179.941406 399.28125 162.671875 C 408.40625 145.398438 416.671875 127.425781 424.078125 108.75 C 436.828125 77.46875 447.128906 45.441406 454.984375 12.671875 C 462.847656 -20.085938 469.375 -53.144531 474.5625 -86.5 Z M 487.234375 -750.296875 C 488.273438 -750.296875 489.460938 -750.445312 490.796875 -750.75 C 498.953125 -751.488281 507.101562 -752.820312 515.25 -754.75 C 521.769531 -756.082031 528.4375 -757.191406 535.25 -758.078125 C 552.445312 -760.003906 569.570312 -762.304688 586.625 -764.984375 C 592.851562 -766.015625 599.226562 -766.976562 605.75 -767.875 C 623.6875 -770.539062 641.625 -773.351562 659.5625 -776.3125 C 665.050781 -776.90625 670.390625 -777.722656 675.578125 -778.765625 L 677.578125 -778.765625 C 679.503906 -779.359375 681.429688 -779.65625 683.359375 -779.65625 C 684.398438 -779.65625 685.585938 -779.503906 686.921875 -779.203125 C 688.253906 -779.503906 689.738281 -779.65625 691.375 -779.65625 C 693.300781 -779.65625 695.226562 -778.988281 697.15625 -777.65625 C 697.75 -777.351562 698.378906 -776.796875 699.046875 -775.984375 C 699.710938 -775.171875 700.191406 -774.242188 700.484375 -773.203125 C 700.484375 -772.609375 700.332031 -771.828125 700.03125 -770.859375 C 699.738281 -769.898438 699.445312 -769.050781 699.15625 -768.3125 C 696.78125 -766.382812 694.21875 -765.007812 691.46875 -764.1875 C 688.726562 -763.375 685.878906 -762.820312 682.921875 -762.53125 C 682.328125 -762.238281 681.507812 -762.09375 680.46875 -762.09375 L 639.328125 -755.1875 C 612.941406 -750.894531 586.550781 -746.523438 560.15625 -742.078125 L 541.484375 -738.953125 C 525.171875 -737.023438 508.867188 -733.765625 492.578125 -729.171875 C 495.242188 -718.796875 497.910156 -708.566406 500.578125 -698.484375 C 504.429688 -684.398438 507.691406 -670.390625 510.359375 -656.453125 C 517.171875 -617.316406 521.835938 -577.957031 524.359375 -538.375 C 534.140625 -407.625 533.320312 -277.164062 521.90625 -147 L 521.90625 -146.109375 C 521.613281 -144.472656 521.46875 -142.84375 521.46875 -141.21875 C 521.175781 -135.28125 522.957031 -131.867188 526.8125 -130.984375 C 531.695312 -131.273438 536.4375 -131.71875 541.03125 -132.3125 C 548.59375 -133.050781 555.929688 -133.71875 563.046875 -134.3125 C 576.097656 -135.0625 589.296875 -135.582031 602.640625 -135.875 L 610.640625 -135.875 C 612.566406 -135.875 614.269531 -135.207031 615.75 -133.875 C 617.238281 -132.539062 617.984375 -130.757812 617.984375 -128.53125 C 617.984375 -126.601562 617.316406 -124.972656 615.984375 -123.640625 C 614.648438 -122.304688 613.019531 -121.34375 611.09375 -120.75 C 606.488281 -119.414062 601.890625 -118.75 597.296875 -118.75 C 575.503906 -118.007812 553.859375 -115.859375 532.359375 -112.296875 C 526.429688 -111.703125 522.503906 -110.515625 520.578125 -108.734375 C 518.648438 -106.960938 517.316406 -102.960938 516.578125 -96.734375 C 514.648438 -85.910156 512.875 -74.941406 511.25 -63.828125 C 508.582031 -47.960938 505.84375 -31.875 503.03125 -15.5625 C 491.90625 42.550781 473.742188 98.21875 448.546875 151.4375 C 431.347656 187.613281 409.921875 219.710938 384.265625 247.734375 C 358.617188 275.753906 327.859375 299.101562 291.984375 317.78125 C 248.398438 340.164062 204.070312 351.0625 159 350.46875 C 124.457031 351.0625 89.394531 344.6875 53.8125 331.34375 C 10.820312 315.332031 -27.5 291.539062 -61.15625 259.96875 C -76.875 245.582031 -89.769531 229.273438 -99.84375 211.046875 C -119.71875 173.535156 -120.832031 135.359375 -103.1875 96.515625 C -95.769531 80.203125 -86.242188 65.597656 -74.609375 52.703125 C -62.972656 39.804688 -50.035156 28.171875 -35.796875 17.796875 C -18.453125 4.742188 -0.332031 -6.410156 18.5625 -15.671875 C 37.46875 -24.941406 57.078125 -33.207031 77.390625 -40.46875 C 107.035156 -50.851562 136.941406 -59.898438 167.109375 -67.609375 C 197.285156 -75.316406 227.71875 -82.429688 258.40625 -88.953125 C 325.863281 -103.628906 393.835938 -115.191406 462.328125 -123.640625 C 471.078125 -124.234375 476.675781 -125.828125 479.125 -128.421875 C 481.570312 -131.015625 483.164062 -137.054688 483.90625 -146.546875 C 492.351562 -251.210938 494.648438 -356.253906 490.796875 -461.671875 C 489.753906 -494.578125 487.75 -527.519531 484.78125 -560.5 C 481.820312 -593.488281 477.597656 -626.289062 472.109375 -658.90625 C 468.847656 -676.84375 464.773438 -694.410156 459.890625 -711.609375 C 458.554688 -717.835938 456.40625 -721.765625 453.4375 -723.390625 L 450.546875 -724.28125 C 449.648438 -724.28125 448.535156 -724.132812 447.203125 -723.84375 L 388.5 -714.5 C 356.476562 -709.3125 324.53125 -704.414062 292.65625 -699.8125 C 198.363281 -685.582031 103.554688 -673.722656 8.234375 -664.234375 C -2.441406 -662.609375 -13.046875 -661.941406 -23.578125 -662.234375 C -31.722656 -662.234375 -39.65625 -662.53125 -47.375 -663.125 C -48.707031 -663.125 -49.960938 -663.53125 -51.140625 -664.34375 C -52.328125 -665.164062 -53.21875 -666.390625 -53.8125 -668.015625 C -54.40625 -672.316406 -53.070312 -675.578125 -49.8125 -677.796875 C -42.988281 -681.804688 -35.648438 -683.8125 -27.796875 -683.8125 C 22.753906 -688.695312 73.195312 -694.398438 123.53125 -700.921875 C 173.863281 -707.453125 224.160156 -714.128906 274.421875 -720.953125 C 315.191406 -726.878906 355.960938 -732.582031 396.734375 -738.0625 C 401.617188 -738.363281 406.65625 -738.882812 411.84375 -739.625 C 420 -739.925781 428.15625 -740.890625 436.3125 -742.515625 C 444.46875 -744.148438 452.328125 -747.265625 459.890625 -751.859375 C 460.921875 -752.148438 461.914062 -752.367188 462.875 -752.515625 C 463.84375 -752.671875 464.773438 -752.597656 465.671875 -752.296875 C 466.410156 -752.296875 467.078125 -752.148438 467.671875 -751.859375 L 470.5625 -752.75 C 471.59375 -752.75 472.628906 -752.597656 473.671875 -752.296875 C 478.117188 -751.265625 482.640625 -750.597656 487.234375 -750.296875 Z M 487.234375 -750.296875 "/></g></g><g transform="translate(724.41925, 919.847097)"><g><path d="M 327.796875 -134.765625 C 334.316406 -137.722656 338.09375 -138.238281 339.125 -136.3125 C 340.3125 -132.457031 336.828125 -125.523438 328.671875 -115.515625 C 320.523438 -105.515625 309.484375 -95.328125 295.546875 -84.953125 C 261.890625 -61.523438 233.570312 -47.515625 210.59375 -42.921875 C 187.613281 -38.328125 168.859375 -39.769531 154.328125 -47.25 C 139.804688 -54.738281 128.984375 -65.007812 121.859375 -78.0625 C 113.410156 -92.738281 108.148438 -107.265625 106.078125 -121.640625 C 103.253906 -137.359375 99.394531 -146.253906 94.5 -148.328125 C 89.613281 -150.398438 84.390625 -148.175781 78.828125 -141.65625 C 73.273438 -135.132812 67.863281 -126.570312 62.59375 -115.96875 C 57.332031 -105.375 52.992188 -95.035156 49.578125 -84.953125 C 46.171875 -74.867188 44.320312 -67.234375 44.03125 -62.046875 C 42.988281 -59.078125 42.023438 -56.257812 41.140625 -53.59375 C 39.804688 -49.445312 38.320312 -45.367188 36.6875 -41.359375 C 32.394531 -30.242188 24.910156 -26.164062 14.234375 -29.125 C 8.304688 -30.164062 4.894531 -33.800781 4 -40.03125 C 3.550781 -44.175781 3.328125 -48.550781 3.328125 -53.15625 C 3.328125 -56.707031 3.179688 -60.484375 2.890625 -64.484375 C 2.296875 -91.171875 1.628906 -118.082031 0.890625 -145.21875 C 0.890625 -148.476562 2.445312 -150.738281 5.5625 -152 C 8.675781 -153.257812 12.269531 -153.8125 16.34375 -153.65625 C 20.414062 -153.507812 24.007812 -152.878906 27.125 -151.765625 C 30.238281 -150.660156 31.945312 -149.070312 32.25 -147 C 32.988281 -142.550781 33.359375 -138.695312 33.359375 -135.4375 C 33.359375 -130.832031 33.65625 -127.53125 34.25 -125.53125 C 34.84375 -123.53125 36.210938 -123.601562 38.359375 -125.75 C 40.503906 -127.90625 44.175781 -132.390625 49.375 -139.203125 C 57.519531 -152.253906 67.820312 -163.375 80.28125 -172.5625 C 85.769531 -176.71875 92.253906 -179.722656 99.734375 -181.578125 C 107.222656 -183.429688 114.453125 -183.691406 121.421875 -182.359375 C 128.835938 -180.429688 134.65625 -176.203125 138.875 -169.671875 C 143.101562 -163.148438 146.289062 -155.703125 148.4375 -147.328125 C 150.59375 -138.953125 152.1875 -131.207031 153.21875 -124.09375 C 153.519531 -122.164062 153.816406 -120.535156 154.109375 -119.203125 C 155.742188 -109.710938 157.929688 -101.070312 160.671875 -93.28125 C 163.410156 -85.5 167.894531 -79.382812 174.125 -74.9375 C 180.351562 -70.488281 189.472656 -68.785156 201.484375 -69.828125 C 227.566406 -71.753906 248.28125 -77.203125 263.625 -86.171875 C 278.976562 -95.140625 291.914062 -104.664062 302.4375 -114.75 C 304.070312 -116.082031 305.484375 -117.414062 306.671875 -118.75 C 309.035156 -120.382812 311.035156 -122.015625 312.671875 -123.640625 C 316.523438 -127.796875 321.566406 -131.503906 327.796875 -134.765625 Z M 327.796875 -134.765625 "/></g></g></g></g></g><g transform="matrix(1, 0, 0, 1, 838, 971)"><g clip-path="url(#c6521cd0fe)"><g fill="#1e1e1e" fill-opacity="1"><g transform="translate(0.194102, 79.309274)"><g><path d="M 12.96875 -47.21875 L 1.171875 -47.21875 L 1.171875 -52.328125 L 29.875 -52.328125 L 29.875 -47.21875 L 18.21875 -47.21875 L 18.21875 0 L 12.96875 0 Z M 12.96875 -47.21875 "/></g></g></g><g fill="#1e1e1e" fill-opacity="1"><g transform="translate(31.237541, 79.309274)"><g><path d="M 10.78125 -38.703125 L 10.78125 -33.078125 C 12.289062 -35.265625 13.859375 -36.914062 15.484375 -38.03125 C 17.109375 -39.15625 18.867188 -39.71875 20.765625 -39.71875 C 21.691406 -39.71875 22.503906 -39.609375 23.203125 -39.390625 C 23.910156 -39.171875 24.582031 -38.84375 25.21875 -38.40625 L 22.59375 -34.171875 C 21.625 -34.660156 20.75 -34.90625 19.96875 -34.90625 C 18.21875 -34.90625 16.648438 -34.257812 15.265625 -32.96875 C 13.878906 -31.6875 12.785156 -29.878906 11.984375 -27.546875 C 11.179688 -25.210938 10.78125 -22.539062 10.78125 -19.53125 L 10.78125 0 L 5.828125 0 L 5.828125 -38.703125 Z M 10.78125 -38.703125 "/></g></g></g><g fill="#1e1e1e" fill-opacity="1"><g transform="translate(54.41092, 79.309274)"><g><path d="M 23.53125 0.953125 C 19.84375 0.953125 16.492188 0.03125 13.484375 -1.8125 C 10.472656 -3.664062 8.09375 -6.15625 6.34375 -9.28125 C 4.59375 -12.414062 3.71875 -15.804688 3.71875 -19.453125 C 3.71875 -23.097656 4.601562 -26.460938 6.375 -29.546875 C 8.144531 -32.628906 10.5625 -35.09375 13.625 -36.9375 C 16.6875 -38.789062 20.039062 -39.71875 23.6875 -39.71875 C 26.84375 -39.71875 29.734375 -39.035156 32.359375 -37.671875 C 34.984375 -36.316406 37.242188 -34.300781 39.140625 -31.625 L 39.140625 -38.703125 L 44.015625 -38.703125 L 44.015625 0 L 39.140625 0 L 39.140625 -6.625 C 37.046875 -4.101562 34.6875 -2.207031 32.0625 -0.9375 C 29.4375 0.320312 26.59375 0.953125 23.53125 0.953125 Z M 24.046875 -3.578125 C 26.722656 -3.578125 29.25 -4.21875 31.625 -5.5 C 34.007812 -6.789062 35.914062 -8.613281 37.34375 -10.96875 C 38.78125 -13.320312 39.5 -16.054688 39.5 -19.171875 C 39.5 -22.128906 38.816406 -24.796875 37.453125 -27.171875 C 36.097656 -29.554688 34.253906 -31.441406 31.921875 -32.828125 C 29.585938 -34.210938 26.988281 -34.90625 24.125 -34.90625 C 21.257812 -34.90625 18.644531 -34.1875 16.28125 -32.75 C 13.925781 -31.320312 12.09375 -29.414062 10.78125 -27.03125 C 9.46875 -24.65625 8.8125 -22.082031 8.8125 -19.3125 C 8.8125 -16.539062 9.476562 -13.953125 10.8125 -11.546875 C 12.15625 -9.140625 13.992188 -7.207031 16.328125 -5.75 C 18.660156 -4.300781 21.234375 -3.578125 24.046875 -3.578125 Z M 24.046875 -3.578125 "/></g></g></g><g fill="#1e1e1e" fill-opacity="1"><g transform="translate(104.255349, 79.309274)"><g><path d="M 33.015625 -38.703125 L 38.328125 -38.703125 L 21.0625 0 L 19.3125 0 L 1.890625 -38.703125 L 7.21875 -38.703125 L 20.1875 -9.6875 Z M 33.015625 -38.703125 "/></g></g></g><g fill="#1e1e1e" fill-opacity="1"><g transform="translate(141.711571, 79.309274)"><g><path d="M 23.90625 0.953125 C 19.726562 0.953125 16.117188 0.0390625 13.078125 -1.78125 C 10.046875 -3.601562 7.726562 -6.054688 6.125 -9.140625 C 4.519531 -12.222656 3.71875 -15.585938 3.71875 -19.234375 C 3.71875 -22.785156 4.539062 -26.125 6.1875 -29.25 C 7.84375 -32.382812 10.1875 -34.910156 13.21875 -36.828125 C 16.257812 -38.753906 19.722656 -39.71875 23.609375 -39.71875 C 27.347656 -39.71875 30.75 -38.84375 33.8125 -37.09375 C 36.875 -35.34375 39.28125 -32.910156 41.03125 -29.796875 C 42.78125 -26.691406 43.65625 -23.195312 43.65625 -19.3125 L 43.65625 -18.953125 L 8.8125 -18.953125 C 8.914062 -15.984375 9.609375 -13.359375 10.890625 -11.078125 C 12.179688 -8.796875 13.941406 -7.019531 16.171875 -5.75 C 18.410156 -4.488281 20.988281 -3.859375 23.90625 -3.859375 C 27.351562 -3.859375 30.171875 -4.660156 32.359375 -6.265625 C 34.546875 -7.867188 36.488281 -10.054688 38.1875 -12.828125 L 42.34375 -10.640625 C 40.445312 -6.992188 37.929688 -4.148438 34.796875 -2.109375 C 31.660156 -0.0664062 28.03125 0.953125 23.90625 0.953125 Z M 38.1875 -23.3125 C 37.21875 -27.15625 35.429688 -30.046875 32.828125 -31.984375 C 30.234375 -33.929688 27.1875 -34.90625 23.6875 -34.90625 C 20.132812 -34.90625 17.128906 -33.945312 14.671875 -32.03125 C 12.222656 -30.113281 10.441406 -27.207031 9.328125 -23.3125 Z M 38.1875 -23.3125 "/></g></g></g><g fill="#1e1e1e" fill-opacity="1"><g transform="translate(189.07834, 79.309274)"><g><path d="M 9.765625 -53.640625 L 9.765625 0 L 4.8125 0 L 4.8125 -53.640625 Z M 9.765625 -53.640625 "/></g></g></g><g fill="#1e1e1e" fill-opacity="1"><g transform="translate(203.652787, 79.309274)"><g><path d="M 23.90625 0.953125 C 19.726562 0.953125 16.117188 0.0390625 13.078125 -1.78125 C 10.046875 -3.601562 7.726562 -6.054688 6.125 -9.140625 C 4.519531 -12.222656 3.71875 -15.585938 3.71875 -19.234375 C 3.71875 -22.785156 4.539062 -26.125 6.1875 -29.25 C 7.84375 -32.382812 10.1875 -34.910156 13.21875 -36.828125 C 16.257812 -38.753906 19.722656 -39.71875 23.609375 -39.71875 C 27.347656 -39.71875 30.75 -38.84375 33.8125 -37.09375 C 36.875 -35.34375 39.28125 -32.910156 41.03125 -29.796875 C 42.78125 -26.691406 43.65625 -23.195312 43.65625 -19.3125 L 43.65625 -18.953125 L 8.8125 -18.953125 C 8.914062 -15.984375 9.609375 -13.359375 10.890625 -11.078125 C 12.179688 -8.796875 13.941406 -7.019531 16.171875 -5.75 C 18.410156 -4.488281 20.988281 -3.859375 23.90625 -3.859375 C 27.351562 -3.859375 30.171875 -4.660156 32.359375 -6.265625 C 34.546875 -7.867188 36.488281 -10.054688 38.1875 -12.828125 L 42.34375 -10.640625 C 40.445312 -6.992188 37.929688 -4.148438 34.796875 -2.109375 C 31.660156 -0.0664062 28.03125 0.953125 23.90625 0.953125 Z M 38.1875 -23.3125 C 37.21875 -27.15625 35.429688 -30.046875 32.828125 -31.984375 C 30.234375 -33.929688 27.1875 -34.90625 23.6875 -34.90625 C 20.132812 -34.90625 17.128906 -33.945312 14.671875 -32.03125 C 12.222656 -30.113281 10.441406 -27.207031 9.328125 -23.3125 Z M 38.1875 -23.3125 "/></g></g></g><g fill="#1e1e1e" fill-opacity="1"><g transform="translate(251.019556, 79.309274)"><g><path d="M 10.78125 -38.703125 L 10.78125 -33.078125 C 12.289062 -35.265625 13.859375 -36.914062 15.484375 -38.03125 C 17.109375 -39.15625 18.867188 -39.71875 20.765625 -39.71875 C 21.691406 -39.71875 22.503906 -39.609375 23.203125 -39.390625 C 23.910156 -39.171875 24.582031 -38.84375 25.21875 -38.40625 L 22.59375 -34.171875 C 21.625 -34.660156 20.75 -34.90625 19.96875 -34.90625 C 18.21875 -34.90625 16.648438 -34.257812 15.265625 -32.96875 C 13.878906 -31.6875 12.785156 -29.878906 11.984375 -27.546875 C 11.179688 -25.210938 10.78125 -22.539062 10.78125 -19.53125 L 10.78125 0 L 5.828125 0 L 5.828125 -38.703125 Z M 10.78125 -38.703125 "/></g></g></g></g></g></svg>