<svg xmlns="http://www.w3.org/2000/svg" xmlns:xlink="http://www.w3.org/1999/xlink" width="2000" zoomAndPan="magnify" viewBox="0 0 1500 1499.999933" height="2000" preserveAspectRatio="xMidYMid meet" version="1.0"><defs><g/><clipPath id="33394404c0"><rect x="0" width="785" y="0" height="1297"/></clipPath><clipPath id="c63058eae8"><path d="M 1081.75 402.972656 L 1158.214844 402.972656 L 1158.214844 1474.992188 L 1081.75 1474.992188 Z M 1081.75 402.972656 " clip-rule="nonzero"/></clipPath><clipPath id="2035efafe3"><path d="M 1105 402.972656 L 1134.964844 402.972656 C 1147.808594 402.972656 1158.214844 413.378906 1158.214844 426.222656 L 1158.214844 1451.554688 C 1158.214844 1464.394531 1147.808594 1474.804688 1134.964844 1474.804688 L 1105 1474.804688 C 1092.160156 1474.804688 1081.75 1464.394531 1081.75 1451.554688 L 1081.75 426.222656 C 1081.75 413.378906 1092.160156 402.972656 1105 402.972656 Z M 1105 402.972656 " clip-rule="nonzero"/></clipPath><clipPath id="9be84770cc"><path d="M 0.75 0.972656 L 77.214844 0.972656 L 77.214844 1072.992188 L 0.75 1072.992188 Z M 0.75 0.972656 " clip-rule="nonzero"/></clipPath><clipPath id="2bbb75bf61"><path d="M 24 0.972656 L 53.964844 0.972656 C 66.808594 0.972656 77.214844 11.378906 77.214844 24.222656 L 77.214844 1049.554688 C 77.214844 1062.394531 66.808594 1072.804688 53.964844 1072.804688 L 24 1072.804688 C 11.160156 1072.804688 0.75 1062.394531 0.75 1049.554688 L 0.75 24.222656 C 0.75 11.378906 11.160156 0.972656 24 0.972656 Z M 24 0.972656 " clip-rule="nonzero"/></clipPath><clipPath id="ad2d67f5a4"><rect x="0" width="78" y="0" height="1073"/></clipPath><clipPath id="4ccf05c7f1"><path d="M 1045.945312 289.914062 L 1194.023438 289.914062 L 1194.023438 402.972656 L 1045.945312 402.972656 Z M 1045.945312 289.914062 " clip-rule="nonzero"/></clipPath><clipPath id="0ab42b4b83"><path d="M 0.945312 0.914062 L 149 0.914062 L 149 113.972656 L 0.945312 113.972656 Z M 0.945312 0.914062 " clip-rule="nonzero"/></clipPath><clipPath id="2684570a21"><rect x="0" width="150" y="0" height="114"/></clipPath><clipPath id="1ef4a394d0"><path d="M 473.101562 1303.339844 L 654.863281 1303.339844 L 654.863281 1474.804688 L 473.101562 1474.804688 Z M 473.101562 1303.339844 " clip-rule="nonzero"/></clipPath><clipPath id="10362ff31d"><path d="M 0.101562 0.339844 L 181.863281 0.339844 L 181.863281 171.804688 L 0.101562 171.804688 Z M 0.101562 0.339844 " clip-rule="nonzero"/></clipPath><clipPath id="5bceb71d43"><rect x="0" width="182" y="0" height="172"/></clipPath><clipPath id="5319322c63"><path d="M 503.175781 314.085938 L 594.050781 314.085938 L 594.050781 1303.339844 L 503.175781 1303.339844 Z M 503.175781 314.085938 " clip-rule="nonzero"/></clipPath><clipPath id="0fffc5fbec"><path d="M 0.175781 0.0859375 L 91.050781 0.0859375 L 91.050781 989.339844 L 0.175781 989.339844 Z M 0.175781 0.0859375 " clip-rule="nonzero"/></clipPath><clipPath id="b943e0b9c8"><rect x="0" width="92" y="0" height="990"/></clipPath><clipPath id="84487b2104"><rect x="0" width="662" y="0" height="1385"/></clipPath><clipPath id="1e16f0f38f"><path d="M 548.613281 51.582031 L 654.863281 51.582031 L 654.863281 150.179688 L 548.613281 150.179688 Z M 548.613281 51.582031 " clip-rule="nonzero"/></clipPath><clipPath id="26fa38b553"><path d="M 0.613281 0.582031 L 106.863281 0.582031 L 106.863281 99.179688 L 0.613281 99.179688 Z M 0.613281 0.582031 " clip-rule="nonzero"/></clipPath><clipPath id="09239981bb"><rect x="0" width="107" y="0" height="100"/></clipPath><clipPath id="dd3a7446a9"><rect x="0" width="480" y="0" height="1386"/></clipPath><clipPath id="46d6617466"><path d="M 518.589844 1425.332031 L 1217.195312 1425.332031 L 1217.195312 1500 L 518.589844 1500 Z M 518.589844 1425.332031 " clip-rule="nonzero"/></clipPath><clipPath id="d6c155a89b"><path d="M 0.589844 0.332031 L 699.195312 0.332031 L 699.195312 75 L 0.589844 75 Z M 0.589844 0.332031 " clip-rule="nonzero"/></clipPath><clipPath id="12216e0b46"><rect x="0" width="700" y="0" height="75"/></clipPath><clipPath id="3baabcc90c"><path d="M 998.140625 1289.617188 L 1158.214844 1289.617188 L 1158.214844 1425.332031 L 998.140625 1425.332031 Z M 998.140625 1289.617188 " clip-rule="nonzero"/></clipPath><clipPath id="79c9f46e95"><path d="M 0.140625 0.617188 L 160.214844 0.617188 L 160.214844 136.332031 L 0.140625 136.332031 Z M 0.140625 0.617188 " clip-rule="nonzero"/></clipPath><clipPath id="293fe9ac4b"><rect x="0" width="161" y="0" height="137"/></clipPath><clipPath id="8e0cb056a2"><path d="M 1104.808594 1130.507812 L 1283.238281 1130.507812 L 1283.238281 1289.617188 L 1104.808594 1289.617188 Z M 1104.808594 1130.507812 " clip-rule="nonzero"/></clipPath><clipPath id="066ff09c04"><path d="M 0.808594 0.507812 L 179.238281 0.507812 L 179.238281 159.617188 L 0.808594 159.617188 Z M 0.808594 0.507812 " clip-rule="nonzero"/></clipPath><clipPath id="b2d71a16c6"><rect x="0" width="180" y="0" height="160"/></clipPath><clipPath id="3ec2cc7e7e"><path d="M 998 101 L 1155 101 L 1155 244 L 998 244 Z M 998 101 " clip-rule="nonzero"/></clipPath><clipPath id="9e64b83e8c"><path d="M 1043.007812 101.367188 L 1154.195312 163.1875 L 1109.324219 243.886719 L 998.140625 182.066406 Z M 1043.007812 101.367188 " clip-rule="nonzero"/></clipPath><clipPath id="75501b720b"><path d="M 0 0.28125 L 156.398438 0.28125 L 156.398438 143 L 0 143 Z M 0 0.28125 " clip-rule="nonzero"/></clipPath><clipPath id="59a972b3db"><path d="M 45.007812 0.367188 L 156.195312 62.1875 L 111.324219 142.886719 L 0.140625 81.066406 Z M 45.007812 0.367188 " clip-rule="nonzero"/></clipPath><clipPath id="5d689e6f8d"><rect x="0" width="157" y="0" height="143"/></clipPath><clipPath id="b220a1fa83"><path d="M 64.855469 851.5625 L 248.816406 851.5625 L 248.816406 1188.933594 L 64.855469 1188.933594 Z M 64.855469 851.5625 " clip-rule="nonzero"/></clipPath><clipPath id="8499cbf685"><path d="M 0.855469 0.5625 L 184.816406 0.5625 L 184.816406 337.933594 L 0.855469 337.933594 Z M 0.855469 0.5625 " clip-rule="nonzero"/></clipPath><clipPath id="94cd2392f9"><rect x="0" width="185" y="0" height="338"/></clipPath><clipPath id="a79f774cb5"><path d="M 539.367188 109.175781 L 607.660156 109.175781 L 607.660156 164.515625 L 539.367188 164.515625 Z M 539.367188 109.175781 " clip-rule="nonzero"/></clipPath><clipPath id="4477f571e4"><path d="M 0.367188 0.175781 L 68.660156 0.175781 L 68.660156 55.515625 L 0.367188 55.515625 Z M 0.367188 0.175781 " clip-rule="nonzero"/></clipPath><clipPath id="99cf4ca66d"><rect x="0" width="69" y="0" height="56"/></clipPath><clipPath id="9d65e303f3"><path d="M 1079.808594 910.515625 L 1340.8125 910.515625 L 1340.8125 1097.410156 L 1079.808594 1097.410156 Z M 1079.808594 910.515625 " clip-rule="nonzero"/></clipPath><clipPath id="f13557b2fd"><path d="M 0.808594 0.515625 L 261.8125 0.515625 L 261.8125 187.410156 L 0.808594 187.410156 Z M 0.808594 0.515625 " clip-rule="nonzero"/></clipPath><clipPath id="765be2f65e"><rect x="0" width="262" y="0" height="188"/></clipPath><clipPath id="23d2bfb841"><path d="M 116.15625 127.503906 L 1377.65625 127.503906 L 1377.65625 1389.003906 L 116.15625 1389.003906 Z M 116.15625 127.503906 " clip-rule="nonzero"/></clipPath><clipPath id="2b2fdd091f"><path d="M 746.9375 127.503906 C 398.566406 127.503906 116.15625 409.914062 116.15625 758.28125 C 116.15625 1106.652344 398.566406 1389.0625 746.9375 1389.0625 C 1095.308594 1389.0625 1377.714844 1106.652344 1377.714844 758.28125 C 1377.714844 409.914062 1095.308594 127.503906 746.9375 127.503906 Z M 746.9375 127.503906 " clip-rule="nonzero"/></clipPath><clipPath id="6f13d7267f"><path d="M 1014 1267 L 1065 1267 L 1065 1312 L 1014 1312 Z M 1014 1267 " clip-rule="nonzero"/></clipPath><clipPath id="783aed440a"><path d="M 1014.078125 1284.765625 L 1052.140625 1267.386719 L 1064.503906 1294.464844 L 1026.441406 1311.84375 Z M 1014.078125 1284.765625 " clip-rule="nonzero"/></clipPath><clipPath id="49c93815cf"><path d="M 0 0.199219 L 50.640625 0.199219 L 50.640625 45 L 0 45 Z M 0 0.199219 " clip-rule="nonzero"/></clipPath><clipPath id="0c67722287"><path d="M 0.078125 17.765625 L 38.140625 0.386719 L 50.503906 27.464844 L 12.441406 44.84375 Z M 0.078125 17.765625 " clip-rule="nonzero"/></clipPath><clipPath id="0b75b19f4b"><rect x="0" width="51" y="0" height="45"/></clipPath><clipPath id="518fc0da00"><path d="M 1021.355469 823.261719 L 1079.808594 823.261719 L 1079.808594 1289.617188 L 1021.355469 1289.617188 Z M 1021.355469 823.261719 " clip-rule="nonzero"/></clipPath><clipPath id="5ddb3574cc"><path d="M 0.355469 0.261719 L 58.808594 0.261719 L 58.808594 466.617188 L 0.355469 466.617188 Z M 0.355469 0.261719 " clip-rule="nonzero"/></clipPath><clipPath id="7201a7c91d"><rect x="0" width="59" y="0" height="467"/></clipPath><clipPath id="382610b48c"><path d="M 578 152 L 631 152 L 631 201 L 578 201 Z M 578 152 " clip-rule="nonzero"/></clipPath><clipPath id="eda68183c3"><path d="M 615.203125 131.765625 L 645.023438 174.277344 L 607.878906 200.328125 L 578.058594 157.820312 Z M 615.203125 131.765625 " clip-rule="nonzero"/></clipPath><clipPath id="1c8f6087bd"><path d="M 630.089844 152.988281 L 607.835938 200.269531 L 578.058594 157.820312 Z M 630.089844 152.988281 " clip-rule="nonzero"/></clipPath><clipPath id="5ce8e2bc4b"><path d="M 0 0.878906 L 52.238281 0.878906 L 52.238281 48.398438 L 0 48.398438 Z M 0 0.878906 " clip-rule="nonzero"/></clipPath><clipPath id="aaf811d9cc"><path d="M 37.203125 -20.234375 L 67.023438 22.277344 L 29.878906 48.328125 L 0.0585938 5.820312 Z M 37.203125 -20.234375 " clip-rule="nonzero"/></clipPath><clipPath id="c183738996"><path d="M 52.089844 0.988281 L 29.835938 48.269531 L 0.0585938 5.820312 Z M 52.089844 0.988281 " clip-rule="nonzero"/></clipPath><clipPath id="c58ede802b"><rect x="0" width="53" y="0" height="49"/></clipPath></defs><g transform="matrix(1, 0, 0, 1, 452, 203)"><g clip-path="url(#33394404c0)"><g fill="#000000" fill-opacity="1"><g transform="translate(1.220618, 1269.136534)"><g><path d="M 710.546875 -1146.046875 C 712.734375 -1146.046875 713.828125 -1144.410156 713.828125 -1141.140625 C 713.828125 -1138.953125 712.734375 -1137.859375 710.546875 -1137.859375 C 702.910156 -1137.859375 696.363281 -1135.398438 690.90625 -1130.484375 C 685.445312 -1125.578125 682.71875 -1119.304688 682.71875 -1111.671875 L 682.71875 0 C 682.71875 2.1875 681.628906 3.28125 679.453125 3.28125 L 654.890625 3.28125 C 653.796875 3.28125 652.703125 2.734375 651.609375 1.640625 L 114.609375 -1110.03125 C 112.421875 -1113.3125 109.691406 -1117.132812 106.421875 -1121.5 L 106.421875 -31.109375 C 106.421875 -23.460938 109.148438 -16.910156 114.609375 -11.453125 C 120.066406 -6.003906 126.613281 -3.28125 134.25 -3.28125 C 136.4375 -3.28125 137.53125 -2.1875 137.53125 0 C 137.53125 2.1875 136.4375 3.28125 134.25 3.28125 L 72.03125 3.28125 C 69.851562 3.28125 68.765625 2.1875 68.765625 0 C 68.765625 -2.1875 69.851562 -3.28125 72.03125 -3.28125 C 79.675781 -3.28125 86.226562 -6.003906 91.6875 -11.453125 C 97.144531 -16.910156 99.875 -23.460938 99.875 -31.109375 L 99.875 -1128.046875 C 90.050781 -1134.585938 80.769531 -1137.859375 72.03125 -1137.859375 C 69.851562 -1137.859375 68.765625 -1138.953125 68.765625 -1141.140625 C 68.765625 -1144.410156 69.851562 -1146.046875 72.03125 -1146.046875 L 160.453125 -1146.046875 C 161.535156 -1146.046875 162.625 -1144.957031 163.71875 -1142.78125 L 676.171875 -85.140625 L 676.171875 -1111.671875 C 676.171875 -1129.128906 666.894531 -1137.859375 648.34375 -1137.859375 C 646.15625 -1137.859375 645.0625 -1138.953125 645.0625 -1141.140625 C 645.0625 -1144.410156 646.15625 -1146.046875 648.34375 -1146.046875 Z M 710.546875 -1146.046875 "/></g></g></g></g></g><g clip-path="url(#c63058eae8)"><g clip-path="url(#2035efafe3)"><g transform="matrix(1, 0, 0, 1, 1081, 402)"><g clip-path="url(#ad2d67f5a4)"><g clip-path="url(#9be84770cc)"><g clip-path="url(#2bbb75bf61)"><path fill="#ffffff" d="M 0.75 0.972656 L 77.214844 0.972656 L 77.214844 1072.695312 L 0.75 1072.695312 Z M 0.75 0.972656 " fill-opacity="1" fill-rule="nonzero"/></g></g></g></g></g></g><g clip-path="url(#4ccf05c7f1)"><g transform="matrix(1, 0, 0, 1, 1045, 289)"><g clip-path="url(#2684570a21)"><g clip-path="url(#0ab42b4b83)"><path fill="#ffffff" d="M 0.945312 0.914062 L 148.890625 0.914062 L 148.890625 113.972656 L 0.945312 113.972656 Z M 0.945312 0.914062 " fill-opacity="1" fill-rule="nonzero"/></g></g></g></g><g clip-path="url(#1ef4a394d0)"><g transform="matrix(1, 0, 0, 1, 473, 1303)"><g clip-path="url(#5bceb71d43)"><g clip-path="url(#10362ff31d)"><path fill="#ffffff" d="M 0.101562 0.339844 L 181.613281 0.339844 L 181.613281 171.804688 L 0.101562 171.804688 Z M 0.101562 0.339844 " fill-opacity="1" fill-rule="nonzero"/></g></g></g></g><g clip-path="url(#5319322c63)"><g transform="matrix(1, 0, 0, 1, 503, 314)"><g clip-path="url(#b943e0b9c8)"><g clip-path="url(#0fffc5fbec)"><path fill="#ffffff" d="M 0.175781 0.0859375 L 91.050781 0.0859375 L 91.050781 989.410156 L 0.175781 989.410156 Z M 0.175781 0.0859375 " fill-opacity="1" fill-rule="nonzero"/></g></g></g></g><g transform="matrix(1, 0, 0, 1, 54, 34)"><g clip-path="url(#84487b2104)"><g fill="#000000" fill-opacity="1"><g transform="translate(0.989664, 1114.508105)"><g><path d="M 596.25 -1005.71875 C 598.164062 -1005.71875 599.125 -1004.28125 599.125 -1001.40625 C 599.125 -999.488281 598.164062 -998.53125 596.25 -998.53125 C 589.539062 -998.53125 584.03125 -996.375 579.71875 -992.0625 C 575.40625 -987.75 573.25 -982.242188 573.25 -975.546875 L 573.25 -245.6875 C 573.25 -198.75 561.515625 -155.882812 538.046875 -117.09375 C 514.585938 -78.300781 483.460938 -47.410156 444.671875 -24.421875 C 405.878906 -1.429688 363.015625 10.0625 316.078125 10.0625 C 246.160156 10.0625 186.296875 -14.363281 136.484375 -63.21875 C 133.609375 -66.09375 131.695312 -68.007812 130.75 -68.96875 C 129.789062 -69.925781 128.832031 -70.882812 127.875 -71.84375 C 126.914062 -72.800781 126.4375 -73.28125 126.4375 -73.28125 C 123.5625 -76.144531 121.164062 -79.015625 119.25 -81.890625 C 79.976562 -129.785156 60.34375 -184.382812 60.34375 -245.6875 C 60.34375 -247.601562 61.300781 -248.5625 63.21875 -248.5625 L 83.328125 -248.5625 C 84.285156 -248.5625 85.242188 -248.082031 86.203125 -247.125 C 86.203125 -247.125 86.203125 -246.644531 86.203125 -245.6875 C 84.285156 -231.3125 84.046875 -208.796875 85.484375 -178.140625 C 86.921875 -147.492188 100.09375 -116.847656 125 -86.203125 C 126.914062 -83.328125 128.832031 -80.453125 130.75 -77.578125 C 131.695312 -77.578125 132.648438 -77.097656 133.609375 -76.140625 C 133.609375 -75.179688 134.085938 -74.226562 135.046875 -73.28125 C 136.003906 -72.320312 137.921875 -70.882812 140.796875 -68.96875 C 189.648438 -20.113281 248.078125 4.3125 316.078125 4.3125 C 353.429688 4.3125 387.671875 -6.941406 418.796875 -29.453125 C 449.929688 -51.960938 474.597656 -82.132812 492.796875 -119.96875 C 510.992188 -157.800781 520.09375 -199.707031 520.09375 -245.6875 L 520.09375 -975.546875 C 520.09375 -982.242188 517.9375 -987.75 513.625 -992.0625 C 509.320312 -996.375 503.816406 -998.53125 497.109375 -998.53125 C 495.191406 -998.53125 494.234375 -999.488281 494.234375 -1001.40625 C 494.234375 -1004.28125 495.191406 -1005.71875 497.109375 -1005.71875 Z M 520.09375 -994.21875 L 520.09375 -998.53125 L 515.78125 -998.53125 C 517.695312 -997.570312 519.132812 -996.132812 520.09375 -994.21875 Z M 573.25 -994.21875 C 574.207031 -996.132812 575.644531 -997.570312 577.5625 -998.53125 L 573.25 -998.53125 Z M 573.25 -994.21875 "/></g></g></g></g></g><g clip-path="url(#1e16f0f38f)"><g transform="matrix(1, 0, 0, 1, 548, 51)"><g clip-path="url(#09239981bb)"><g clip-path="url(#26fa38b553)"><path fill="#ffffff" d="M 0.613281 0.582031 L 106.917969 0.582031 L 106.917969 99.179688 L 0.613281 99.179688 Z M 0.613281 0.582031 " fill-opacity="1" fill-rule="nonzero"/></g></g></g></g><g transform="matrix(1, 0, 0, 1, 907, 0.000000000000112861)"><g clip-path="url(#dd3a7446a9)"><g fill="#000000" fill-opacity="1"><g transform="translate(0.748599, 1077.170916)"><g><path d="M 407.671875 -52.390625 C 409.847656 -50.203125 409.847656 -48.566406 407.671875 -47.484375 C 374.921875 -13.640625 334.535156 3.28125 286.515625 3.28125 C 285.421875 3.28125 285.421875 3.28125 286.515625 3.28125 C 284.328125 3.28125 282.144531 3.28125 279.96875 3.28125 C 278.875 3.28125 278.328125 3.28125 278.328125 3.28125 C 232.484375 1.09375 193.460938 -16.644531 161.265625 -49.9375 C 129.066406 -83.226562 112.96875 -122.796875 112.96875 -168.640625 L 112.96875 -743.296875 L 72.03125 -743.296875 C 69.851562 -743.296875 68.765625 -744.390625 68.765625 -746.578125 C 68.765625 -748.753906 69.851562 -749.84375 72.03125 -749.84375 L 112.96875 -749.84375 L 112.96875 -872.640625 C 112.96875 -873.734375 113.515625 -874.820312 114.609375 -875.90625 L 167 -902.109375 C 168.09375 -902.109375 169.179688 -902.109375 170.265625 -902.109375 C 171.359375 -901.015625 171.90625 -899.921875 171.90625 -898.828125 L 171.90625 -749.84375 L 286.515625 -749.84375 C 288.691406 -749.84375 289.78125 -748.753906 289.78125 -746.578125 C 289.78125 -744.390625 288.691406 -743.296875 286.515625 -743.296875 L 171.90625 -743.296875 L 171.90625 -168.640625 C 171.90625 -124.972656 182.273438 -87.3125 203.015625 -55.65625 C 223.753906 -24.007812 249.40625 -6.550781 279.96875 -3.28125 C 281.0625 -3.28125 283.242188 -3.28125 286.515625 -3.28125 C 332.359375 -3.28125 371.101562 -19.648438 402.75 -52.390625 C 404.9375 -54.578125 406.578125 -54.578125 407.671875 -52.390625 Z M 407.671875 -52.390625 "/></g></g></g></g></g><g clip-path="url(#46d6617466)"><g transform="matrix(1, 0, 0, 1, 518, 1425)"><g clip-path="url(#12216e0b46)"><g clip-path="url(#d6c155a89b)"><path fill="#ffffff" d="M 0.589844 0.332031 L 699.261719 0.332031 L 699.261719 259.929688 L 0.589844 259.929688 Z M 0.589844 0.332031 " fill-opacity="1" fill-rule="nonzero"/></g></g></g></g><g clip-path="url(#3baabcc90c)"><g transform="matrix(1, 0, 0, 1, 998, 1289)"><g clip-path="url(#293fe9ac4b)"><g clip-path="url(#79c9f46e95)"><path fill="#ffffff" d="M 0.140625 0.617188 L 160.242188 0.617188 L 160.242188 136.332031 L 0.140625 136.332031 Z M 0.140625 0.617188 " fill-opacity="1" fill-rule="nonzero"/></g></g></g></g><g clip-path="url(#8e0cb056a2)"><g transform="matrix(1, 0, 0, 1, 1104, 1130)"><g clip-path="url(#b2d71a16c6)"><g clip-path="url(#066ff09c04)"><path fill="#ffffff" d="M 0.808594 0.507812 L 179.1875 0.507812 L 179.1875 159.617188 L 0.808594 159.617188 Z M 0.808594 0.507812 " fill-opacity="1" fill-rule="nonzero"/></g></g></g></g><g clip-path="url(#3ec2cc7e7e)"><g clip-path="url(#9e64b83e8c)"><g transform="matrix(1, 0, 0, 1, 998, 101)"><g clip-path="url(#5d689e6f8d)"><g clip-path="url(#75501b720b)"><g clip-path="url(#59a972b3db)"><path fill="#ffffff" d="M 45.007812 0.367188 L 156.285156 62.238281 L 111.414062 142.9375 L 0.140625 81.066406 Z M 45.007812 0.367188 " fill-opacity="1" fill-rule="nonzero"/></g></g></g></g></g></g><g clip-path="url(#b220a1fa83)"><g transform="matrix(1, 0, 0, 1, 64, 851)"><g clip-path="url(#94cd2392f9)"><g clip-path="url(#8499cbf685)"><path fill="#ffffff" d="M 0.855469 0.5625 L 184.816406 0.5625 L 184.816406 337.589844 L 0.855469 337.589844 Z M 0.855469 0.5625 " fill-opacity="1" fill-rule="nonzero"/></g></g></g></g><g clip-path="url(#a79f774cb5)"><g transform="matrix(1, 0, 0, 1, 539, 109)"><g clip-path="url(#99cf4ca66d)"><g clip-path="url(#4477f571e4)"><path fill="#ffffff" d="M 0.367188 0.175781 L 68.675781 0.175781 L 68.675781 55.515625 L 0.367188 55.515625 Z M 0.367188 0.175781 " fill-opacity="1" fill-rule="nonzero"/></g></g></g></g><g clip-path="url(#9d65e303f3)"><g transform="matrix(1, 0, 0, 1, 1079, 910)"><g clip-path="url(#765be2f65e)"><g clip-path="url(#f13557b2fd)"><path fill="#ffffff" d="M 0.808594 0.515625 L 262.167969 0.515625 L 262.167969 187.410156 L 0.808594 187.410156 Z M 0.808594 0.515625 " fill-opacity="1" fill-rule="nonzero"/></g></g></g></g><g clip-path="url(#23d2bfb841)"><g clip-path="url(#2b2fdd091f)"><path stroke-linecap="butt" transform="matrix(0.75, 0, 0, 0.75, 116.157943, 127.502767)" fill="none" stroke-linejoin="miter" d="M 841.039482 0.00151844 C 376.544651 0.00151844 -0.00225673 376.548426 -0.00225673 841.038049 C -0.00225673 1305.532881 376.544651 1682.079788 841.039482 1682.079788 C 1305.534314 1682.079788 1682.076013 1305.532881 1682.076013 841.038049 C 1682.076013 376.548426 1305.534314 0.00151844 841.039482 0.00151844 Z M 841.039482 0.00151844 " stroke="#000000" stroke-width="40" stroke-opacity="1" stroke-miterlimit="4"/></g></g><g clip-path="url(#6f13d7267f)"><g clip-path="url(#783aed440a)"><g transform="matrix(1, 0, 0, 1, 1014, 1267)"><g clip-path="url(#0b75b19f4b)"><g clip-path="url(#49c93815cf)"><g clip-path="url(#0c67722287)"><path fill="#000000" d="M 0.078125 17.765625 L 38.152344 0.382812 L 50.519531 27.457031 L 12.441406 44.84375 Z M 0.078125 17.765625 " fill-opacity="1" fill-rule="nonzero"/></g></g></g></g></g></g><g clip-path="url(#518fc0da00)"><g transform="matrix(1, 0, 0, 1, 1021, 823)"><g clip-path="url(#7201a7c91d)"><g clip-path="url(#5ddb3574cc)"><path fill="#000000" d="M 0.355469 0.261719 L 58.808594 0.261719 L 58.808594 466.511719 L 0.355469 466.511719 Z M 0.355469 0.261719 " fill-opacity="1" fill-rule="nonzero"/></g></g></g></g><g clip-path="url(#382610b48c)"><g clip-path="url(#eda68183c3)"><g clip-path="url(#1c8f6087bd)"><g transform="matrix(1, 0, 0, 1, 578, 152)"><g clip-path="url(#c58ede802b)"><g clip-path="url(#5ce8e2bc4b)"><g clip-path="url(#aaf811d9cc)"><g clip-path="url(#c183738996)"><path fill="#000000" d="M 37.203125 -20.234375 L 67.023438 22.277344 L 29.878906 48.328125 L 0.0585938 5.820312 Z M 37.203125 -20.234375 " fill-opacity="1" fill-rule="nonzero"/></g></g></g></g></g></g></g></g></svg>