<?xml version="1.0" encoding="UTF-8"?>
<svg id="Layer_1" xmlns="http://www.w3.org/2000/svg" version="1.1" viewBox="0 0 940.5 450">
  <!-- Generator: Adobe Illustrator 30.3.0, SVG Export Plug-In . SVG Version: 2.1.3 Build 182)  -->
  <path d="M568.78,210.57c-26.28-10.02-51.91,10.96-68.77,30.23l-15.41,17.61-10.23,11.56-18.7,18.68c-14.64,14.63-40.6,27.43-54.9,10.6-6.82-8.02-9.58-18.13-11.48-28.27-1.48-7.91-2.44-15.54-2.64-23.62l-.75-30.67-1.34-31.77-.74-11.26-2.76-22.5c-1.73-14.13-5.28-27.48-11.2-40.38-6.16-13.41-17.2-23.26-32.17-25.6-13.46-2.1-26.82,1.58-38.96,7.96-35.31,18.56-62.89,53.55-85.21,86.35-27.61,40.56-58.14,100.73-76,146.37l-8.04,20.54-15.18,41.68c-4.57,12.32-7.07,24.56-12.71,37.06,2.05-13.15,5.68-25.2,9.6-37.94,21.46-69.91,54.36-138.55,94.52-199.79,14.5-22.11,30.39-42.43,48.15-61.97,7.5-8.24,14.9-15.97,23.22-23.21l8.53-7.42c14.8-12.87,31.38-23.62,49.68-30.93,20.08-8.01,44.38-7.2,53.78,13.56,4.64,10.24,6.19,21.53,7.31,32.99,1.37,14.01.54,27.75.01,41.92-.67,17.91-.8,35.44-.11,53.3l1.37,13.53c1.14,11.29,3.66,21.65,8.68,31.73,7.19,14.45,22.28,23.01,38.31,19.25,9.61-2.26,18.65-5.81,26.58-11.57l18.24-13.28,22.89-19.79,8.59-7.92,11.98-10.49c5.97-5.22,12.14-9.29,19.06-13.34,11.93-6.98,26.09-10.48,39.57-5.49,8.39,3.1,15.62,9.41,20.55,16.76l13.23,19.72,19.72,30.56c7.89,12.22,17.25,22.82,27.64,33.01,20.51,20.11,45.59,33.58,74.07,38.2l10.71,1.21,25.5.07,6.71-.7,25.4-4.63,10.67-1.92c-13.6,5.11-27.53,8.33-42.31,8.56l-26,.41-20.23-2.3c-13.35-1.52-25.55-6.28-38.02-11.48-19.46-8.11-36.54-19.81-52.29-33.87l-24.72-24.61-13.58-15.06-19.46-19.36c-5.62-5.59-12.72-9.33-20.37-12.25Z"/>
</svg>