<?xml version="1.0" encoding="UTF-8"?>
<svg id="Layer_1" xmlns="http://www.w3.org/2000/svg" version="1.1" viewBox="0 0 940.5 300">
  <!-- Generator: Adobe Illustrator 30.3.0, SVG Export Plug-In . SVG Version: 2.1.3 Build 182)  -->
  <g>
    <path d="M93.63,148.91l-.36-38.91c-.12-12.75.86-24.53-.3-38.34-5.51,11.6-10.03,22.54-14.82,34.22l-20.72,50.13-1.74,1.71c-.48.47-2.27-.66-2.55-1.29l-30.05-66.98-7.87-17.74c-.35,4.95-.57,8.11-.55,12.14l.28,66.36c.02,4.71,6.76,5.87,4.76,8.02l-13.42-.8c5.23-4.4,5.56-8.31,5.55-13.83l-.08-76.3c-.74-2.63-3.7-4.65-5.96-6.85l16-.44,20.09,46.22,16.85,36.64,13.59-31.24,13.9-33.38,7.98-17.99,13.05-.08c3.53-.02-3.5,3.02-3.5,7.19l-.02,82.98c0,4.77,7.73,7.68,2.22,7.56l-17.02-.38c3.15-3.07,4.73-5.1,4.7-8.62Z"/>
    <path d="M742.64,148.24c3.1,3.71,5.71,5.51,9.99,9.01l-11.48.23c-3.53.07-6.68-2.4-8.95-5.18l-36.16-44.37-9.36,9.04-.16,31.87c-.02,3.85,1.33,5.99,4.88,8.01-.58,1.02-2.29,1.24-3.77,1.19l-15.18-.46c1.62-2.33,4.46-4.26,4.45-6.45v-84.56c-.01-2.36-3.26-4.13-5.03-6.18l19.33-.18c-3.52,3.19-4.65,5.45-4.64,9.35l.1,43.1,4.59-4.38,13-13.28,24.79-25.34,4.31-5.17-2.25-4.16,13.63-.39c.71-.02,2.06,1.04,2.04,1.47-5.03,1.23-7.59,2.91-10.84,6.2l-32.83,33.25,39.52,47.38Z"/>
    <path d="M912.72,109.53l-29.01.11-.03,45.32,36.39.04c4.7,0,9.37-2.08,12.39-5.12.96-2.04,1.56-3.09,3.47-4.17l-1.72,11.77-18.25.46-31.13.09-16.43-.09c3.48-3.33,5.14-5.45,5.14-9.86l-.08-81.49c0-2.33-2.83-4.14-4.56-6.4l62.83-.17,1.72,10.1-1.77-.08c-1.47-3.19-4.05-5.11-7.43-6.28l-6.94-1.28-33.59.21.02,43.22,35.71.04,4.93-3.99.04,11.65c-4.14-4.11-7.19-4.1-11.68-4.08Z"/>
    <path d="M311.46,127.67l-1.96-3.75c-.49-.94-3.3-.23-4.43-.22l-41.69.09-10.85,25.05c-1.33,3.07-1.14,5.15,1.82,8.71l-13.33.06c3.34-3.73,5.83-5.72,7.51-9.37l16.99-36.98,20.96-46.33c1-2.2,1.66-3.75,3.17-5.83,1.65,1.31,2.64,2.72,3.44,4.44l11.68,25.16,26.77,58.4c1.34,2.93,2.45,6.13,4.93,8.01,1.33,1,2.02,1.63,2.12,2.6l-18.37-.11,2.08-5.76-10.84-24.18ZM308.02,120.12l-21.62-47.28-21.01,47.3,42.63-.02Z"/>
    <path d="M548.04,60.24c-4.91,3.51-7.44,5.15-9.9,9.09l-6.31,10.13-21.3,33.45v37.51c0,2.61,1.95,4.43,4.12,7.27h-18.54c2.76-3.03,4.28-4.88,4.29-8.05l.09-35.36-30.93-47.75c-1.51-2.33-4.19-3.5-6.39-6.25l19.06-.1c-1.89,3.16-1.86,4.79-.26,7.32l9,14.21,18,27.48,12.5-19.38,15.63-24.73-3.45-4.95,14.4.13Z"/>
  </g>
  <g>
    <path d="M192.35,255.74c-.84.42-2.64.89-4.93.89-5.03,0-8.83-3-8.83-8.25,0-4.64,3.51-8.51,9.35-8.51,2.34,0,3.82.5,4.45.82l-.55,1.74c-.92-.44-2.28-.77-3.8-.77-4.49,0-7.16,2.67-7.16,6.69,0,3.62,2.43,6.46,6.99,6.46,1.48,0,3-.29,4.01-.77l.46,1.7Z"/>
    <path d="M221.57,240.37c1.15-.21,2.86-.36,4.47-.36,2.43,0,3.98.45,5.04,1.39.8.68,1.31,1.79,1.31,3.05,0,2.14-1.48,3.58-3.2,4.11v.06c1.25.46,2.03,1.63,2.44,3.16.59,2.28.99,3.88,1.35,4.56h-2.26c-.26-.46-.65-1.79-1.13-3.83-.52-2.21-1.45-3.08-3.45-3.17h-2.39v7h-2.17v-15.96ZM223.75,247.71h2.59c2.4,0,3.89-1.19,3.89-3.02,0-2.18-1.77-3.01-4.04-3.01-1.23,0-2.04.11-2.43.21v5.81Z"/>
    <path d="M271.12,248.79h-7.01v5.76h7.81v1.79h-10v-16.18h9.61v1.79h-7.42v5.06h7.01v1.79Z"/>
    <path d="M304.06,251.17l-1.87,5.16h-2.29l6.1-16.18h2.67l6.17,16.18h-2.37l-1.96-5.16h-6.45ZM310.04,249.49l-1.85-4.84c-.39-1.03-.64-1.87-.9-2.71h-.05c-.25.85-.5,1.71-.85,2.66l-1.84,4.88h5.49Z"/>
    <path d="M345.21,241.96h-5.58v-1.8h13.38v1.8h-5.61v14.38h-2.19v-14.38Z"/>
    <path d="M383.36,240.16v16.18h-2.19v-16.18h2.19Z"/>
    <path d="M417.53,256.33l-5.83-16.18h2.37l2.82,8.1c.8,2.3,1.44,4.15,1.93,5.98h.05c.52-1.8,1.26-3.76,2.1-5.93l3.13-8.16h2.33l-6.45,16.18h-2.44Z"/>
    <path d="M463.72,248.79h-7.01v5.76h7.81v1.79h-10v-16.18h9.61v1.79h-7.42v5.06h7.01v1.79Z"/>
    <path d="M528.61,251.17l-1.87,5.16h-2.29l6.1-16.18h2.67l6.17,16.18h-2.37l-1.96-5.16h-6.45ZM534.58,249.49l-1.85-4.84c-.39-1.03-.64-1.87-.9-2.71h-.05c-.25.85-.5,1.71-.85,2.66l-1.84,4.88h5.49Z"/>
    <path d="M581.71,255.5c-1.02.37-3.11,1-5.68,1-2.8,0-5.05-.7-6.79-2.33-1.47-1.37-2.35-3.49-2.35-5.86,0-4.33,3.35-8.33,9.63-8.33,2.15,0,3.87.48,4.62.84l-.56,1.74c-1.01-.45-2.25-.79-4.14-.79-4.56,0-7.26,2.72-7.26,6.45s2.65,6.5,7.04,6.5c1.62,0,2.73-.22,3.33-.52v-4.66h-3.67v-1.72h5.83v7.67Z"/>
    <path d="M620.7,248.79h-7.01v5.76h7.81v1.79h-10v-16.18h9.61v1.79h-7.42v5.06h7.01v1.79Z"/>
    <path d="M650.79,256.33v-16.18h2.48l5.92,8.37c1.35,1.95,2.33,3.5,3.16,5.15l.05-.03c-.2-2.03-.23-3.97-.23-6.38v-7.11h2.07v16.18h-2.25l-5.83-8.34c-1.27-1.87-2.49-3.72-3.37-5.39l-.08.03c.12,2.01.14,3.93.14,6.34v7.36h-2.07Z"/>
    <path d="M707.24,255.74c-.84.42-2.64.89-4.93.89-5.03,0-8.83-3-8.83-8.25,0-4.64,3.51-8.51,9.35-8.51,2.34,0,3.82.5,4.45.82l-.55,1.74c-.92-.44-2.29-.77-3.8-.77-4.49,0-7.16,2.67-7.16,6.69,0,3.62,2.43,6.46,6.99,6.46,1.48,0,3-.29,4.01-.77l.46,1.7Z"/>
    <path d="M740.46,256.33v-6.86l-5.65-9.32h2.54l2.55,4.61c.69,1.26,1.2,2.14,1.75,3.23h.05c.48-1,1.08-2,1.77-3.22l2.65-4.62h2.51l-5.98,9.3v6.88h-2.19Z"/>
  </g>
</svg>