<?xml version="1.0" encoding="UTF-8"?>
<svg id="Layer_1" xmlns="http://www.w3.org/2000/svg" version="1.1" viewBox="0 0 940.5 300">
  <!-- Generator: Adobe Illustrator 30.3.0, SVG Export Plug-In . SVG Version: 2.1.3 Build 182)  -->
  <defs>
    <style>
      .st0 {
        fill: #e4e4e4;
      }
    </style>
  </defs>
  <path class="st0" d="M92.62,177.66l-.04-25.02c.26-10,.58-19.08-.48-30.13l-22.39,52.64-13.22,32.35c-.35.59-1.55,1.9-2.15,1.71s-1.55-.95-2.14-1.55l-13.92-31.02-23.83-53.28c-1.16,19.22-.5,36.47-.43,54.67l.08,22.41c.01,4.04,1.83,5.38,5.85,8.52l-13.99.12c-.12-2.9,4.75-3.55,4.76-10.2l.03-77.65c0-4.51-1.75-6.17-6.22-9.72l16.25-.49,20.61,47.22,16.37,35.94,14.28-32.75,21.19-50.06,13.32-.23c2.61,1.63-3.56,2.87-3.56,7.84l.02,82.92c0,4.64,4.61,4.77,4.16,7.16l-18.52-.06c-.5-2.37,4.23-2.42,4.18-7.68l-.21-23.67Z"/>
  <path class="st0" d="M751.33,209.03c-12.02-.24-13.32,1.25-21.69-9.12l-19.09-23.64-14.1-17.14-9.23,9.2v34.43c0,1.77,2.16,3.9,3.59,4.45l.61,1.93-18.25-.14,3.78-4.93.2-43.73v-10.18s-.2-32.89-.2-32.89c-.01-1.86-2.74-4.11-4.24-5.82l19.08-.07c-2.73,3.02-4.58,4.58-4.57,7.52l.13,44.29,14.41-13.92,18.62-18.76,13.83-14.94-2.34-4.17,13.4-.4c.46-.01,1.78.34,2.14.45.47.15-.69,1.28-1.04,1.5-3.89.79-6.39,2.53-9.14,5.3l-33.54,33.79,40.68,48.78c2.41,2.89,5.18,5.04,8.12,6.56l.1,1.45c.02.26-.82.23-1.26.22Z"/>
  <path class="st0" d="M884.5,160.6v45.93s35.54.04,35.54.04c7.68,0,12.39-3.66,16.87-10.08l-1.96,12.55-65.39.07c3.65-3.37,4.77-5.91,4.77-10.17l-.03-79.97c0-3.32-1.74-4.55-4.81-7.55l63.53-.19,1.26,11.09c-3.87-4.93-7.84-8.24-14.08-8.26l-35.68-.12-.06,43.25,30.52.19c4.26.03,6.76-.78,10.71-4.35l-.02,11.89c-3.66-3.39-6.33-4.44-10.69-4.43l-30.5.1Z"/>
  <path class="st0" d="M308.99,174.62l-45.86.09-10.36,23.82c-1.57,3.62-1.79,6.42.9,10.56l-13.52-.11c4.44-4.06,6.86-6.89,8.97-11.5l17.15-37.57,14.22-31.31,7.04-16.06c.33-.75,1.66-1.84,2.3-1.7s1.66,1.19,1.98,1.89l12.66,27.17,25.37,55.34c1.77,3.87,3.48,8.12,6.28,10.99,1.1,1.13,1.89,1.82,2.09,2.79l-18.77.03c2.66-3.6,2.59-6.58.95-10.1l-11.39-24.33ZM307.8,171.64l-21.8-47.63-21.28,47.76,43.08-.13Z"/>
  <path class="st0" d="M517.78,153.23l-7.23,10.78-.02,37.22c0,2.83,1.76,4.8,4.05,7.74l-18.39.1c2.45-2.89,4.29-4.79,4.28-7.83l-.11-36.19-26.93-41.67c-3-4.65-5.49-7.96-10.49-12.07l19.33-.04c-2.46,3.74-1.3,5.71.5,8.51l26.29,40.98,26.79-42.35c.41-.65.95-2.74.52-3.33l-2.67-3.67,12.02-.52c.43-.02,2.06.72,1.81,1.03-1.87,2.35-4.87,1.91-7.91,6.72l-21.84,34.58Z"/>
</svg>